<svg width="896" height="398" viewBox="0 0 896 398" fill="none" xmlns="http://www.w3.org/2000/svg">
<path d="M2.03568 294.894C2.03568 294.894 2.01241 294.441 2.14069 293.934C1.7813 291.279 1.29363 289.131 0.86969 286.614C1.51746 276.183 2.10151 266.121 2.68555 256.059C8.19405 222.362 24.4746 195.253 52.2506 175.227C55.2347 173.076 57.5828 170.8 57.5135 166.206C58.216 160.006 58.5005 154.374 58.7849 148.742C58.7849 148.742 58.774 148.83 59.2308 148.866C74.3899 148.937 89.0923 149.002 103.794 148.957C105.181 148.953 106.566 148.255 107.919 147.524C105.699 146.351 103.513 145.534 101.326 144.717C88.5456 139.806 77.4987 125.247 85.0834 110.132C85.5971 109.045 85.8451 108.535 86.0931 108.025C86.3923 107.694 86.6915 107.364 87.2607 106.596C87.7148 105.764 87.8989 105.37 88.083 104.976C88.083 104.976 87.9934 105.033 88.3038 104.905C89.826 103.23 91.0378 101.682 92.2495 100.133C92.2495 100.133 92.158 99.9969 92.4461 99.9825C93.7127 99.3564 94.6912 98.7446 96.0588 97.8894C94.8992 104.481 92.8952 110.468 96.9175 116.108C96.9175 116.108 96.9391 116.032 96.9355 116.355C97.278 116.82 97.624 116.961 97.97 117.103C97.97 117.103 97.9734 117.028 97.8684 117.402C98.1636 117.893 98.5639 118.009 98.9641 118.125C98.9641 118.125 98.8803 117.981 98.6423 118.345C98.9038 119.2 99.4034 119.691 99.903 120.181C99.903 120.181 100.005 120.099 100.013 120.338C100.328 120.815 100.635 121.052 100.941 121.29C100.985 121.603 101.151 121.825 101.858 122.268C104.478 123.826 106.678 125.073 109.781 126.832C108.446 123.313 107.641 121.191 106.836 119.069C104.192 106.766 108.224 95.7249 113.354 84.9135C114.976 81.4961 116.786 78.1685 118.925 73.9894C123.007 92.1373 126.885 109.383 130.849 127.008C139.007 124.758 144.489 120.011 148.966 113.098C149.163 112.564 149.267 112.1 149.267 112.1C149.267 112.1 149.169 112.045 149.446 111.883C150.249 108.771 150.704 105.805 151.355 102.882C151.489 102.282 152.354 101.845 152.882 101.333C152.882 101.333 152.986 101.145 152.883 101.405C153.19 102.102 153.6 102.538 154.009 102.975C154.009 102.975 153.999 103.004 154.163 103.239C154.885 103.981 155.443 104.488 156.001 104.996C156.001 104.996 155.996 104.999 156.112 105.287C157.003 106.481 157.777 107.387 158.552 108.293C158.552 108.293 158.722 108.294 158.677 108.619C162.398 118.104 160.799 126.699 155.899 134.948C155.899 134.948 155.971 134.968 155.689 135.129C153.257 137.488 151.109 139.686 148.681 141.947C147.942 142.342 147.483 142.674 147.024 143.006C147.024 143.006 147.001 142.992 146.74 143.072C146.294 143.433 146.11 143.715 145.925 143.996C145.925 143.996 146.034 143.945 145.666 143.938C145.162 144.278 145.025 144.624 144.889 144.971C144.825 144.787 144.762 144.604 144.128 144.551C142.061 145.163 140.564 145.645 138.748 146.205C138.246 146.867 138.062 147.45 137.962 148.311C139.675 148.73 141.306 148.987 142.937 148.991C154.921 149.025 166.907 149.148 178.887 148.935C183.339 148.856 185.384 150.218 185.052 154.91C184.77 158.884 184.833 162.905 185.088 166.884C185.178 168.293 186.286 169.637 186.93 171.01C200.629 179.528 212.378 190.156 221.682 203.377C234.398 221.447 241.692 241.554 244.01 263.491C250.236 322.415 211.926 373.894 161.847 391.392C149.464 393.772 137.835 396.876 126.047 397.699C106.886 399.036 88.5756 394.291 71.0763 386.49C65.2639 383.07 59.4515 379.65 53.1288 375.908C52.1258 375.317 51.633 375.048 51.1403 374.778C51.1403 374.778 51.1078 374.856 50.9763 374.586C49.274 373.139 47.7032 371.963 46.1324 370.786C46.1324 370.786 46.02 370.88 45.9957 370.658C45.6672 370.215 45.3628 369.994 45.0584 369.773C44.5473 369.246 44.0362 368.72 43.0995 367.84C42.1416 367.249 41.6092 367.011 41.0768 366.774C41.0768 366.774 41.0573 366.908 41.0992 366.602C40.7837 366.132 40.4263 365.968 40.0689 365.804C40.0689 365.804 40.1068 365.925 40.0835 365.571C37.5159 362.696 34.9715 360.174 32.4271 357.653C32.4271 357.653 32.2294 357.686 32.2681 357.467C31.8924 356.793 31.4782 356.339 31.064 355.885C31.064 355.885 31.0234 355.963 30.9679 355.71C30.6329 355.199 30.3534 354.942 30.074 354.685C30.0786 354.423 29.9815 354.207 29.4597 353.682C28.4333 352.535 27.7302 351.742 27.027 350.95C27.027 350.95 26.9971 350.996 26.933 350.738C26.5829 350.281 26.2969 350.082 26.011 349.883C26.011 349.883 26.0836 349.98 26.0333 349.646C25.3375 348.513 24.692 347.713 24.0465 346.914C24.0465 346.914 24.0201 346.977 23.9676 346.716C23.6172 346.265 23.3192 346.075 23.0212 345.885C23.0212 345.885 23.0734 346.012 23.0636 345.685C22.7261 345.187 22.3985 345.015 22.0709 344.844C22.0709 344.844 22.1351 344.973 22.2165 344.615C21.9106 343.773 21.5232 343.289 21.1358 342.805C21.1358 342.805 21.0849 342.914 21.0687 342.637C20.7256 342.187 20.3986 342.014 20.0715 341.842C20.0715 341.842 20.2129 341.959 20.2313 341.539C18.8633 339.026 17.4769 336.934 16.0906 334.842C16.0906 334.842 16.0762 334.951 16.0653 334.585C12.8069 326.296 9.34322 318.454 6.39069 310.423C4.54134 305.393 3.46105 300.08 2.03568 294.894ZM215.842 326.967C215.992 326.342 216.142 325.716 216.215 325.173C216.215 325.173 216.306 325.238 216.937 324.996C218.01 322.344 219.084 319.693 220.106 317.096C220.106 317.096 220.176 317.122 220.856 316.871C221.304 315.264 221.751 313.656 222.117 312.061C222.117 312.061 222.17 312.124 222.849 311.88C223.885 307.926 224.922 303.973 226.006 299.565C226.006 299.565 226.035 299.11 226.706 298.737C227.652 293.672 228.598 288.607 229.595 283.269C226.562 283.081 224.765 282.97 222.285 282.427C218.2 282.573 214.115 282.719 209.347 282.988C208.888 282.947 208.43 282.906 207.277 282.428C191.8 282.319 176.322 282.201 160.845 282.134C160.24 282.131 159.634 282.617 158.164 283.002C156.195 283.002 154.226 283.002 151.951 283.002C150.083 290.385 148.188 297.533 146.478 304.724C144.241 314.131 142.151 323.574 139.787 333.807C141.312 334.887 142.711 336.619 144.383 336.944C158.37 339.661 172.417 342.063 186.423 344.686C191.403 345.619 197.163 349.008 201.036 347.455C205.295 345.748 207.822 339.665 211.032 335.434C211.821 334.393 212.329 333.14 213.358 331.567C213.597 331.057 213.836 330.547 214.009 330.022C214.009 330.022 214.04 330.083 214.528 329.585C214.752 328.736 214.975 327.886 215.118 327.089C215.118 327.089 215.177 327.165 215.842 326.967ZM166.52 373.086C166.52 373.086 166.961 372.885 167.482 372.864C168.07 372.504 168.658 372.143 169.953 371.551C173.015 369.729 176.076 367.907 179.057 366.072C179.057 366.072 179.075 366.152 179.675 365.969C180.496 365.341 181.318 364.714 182.057 364.068C182.057 364.068 182.082 364.149 182.717 363.929C184.349 362.717 185.98 361.506 187.612 360.294C187.517 359.752 187.423 359.21 187.328 358.668C176.223 356.481 165.118 354.295 153.363 351.928C152.916 351.938 152.469 351.947 151.138 351.79C148.711 351.558 146.24 351.542 143.867 351.053C136.63 349.561 135.466 350.215 133.605 357.326C132.68 360.859 131.663 364.368 130.777 367.91C129.628 372.504 128.569 377.12 127.46 381.774C135.481 383.013 150.382 380.197 159.008 376.076C159.008 376.076 159.031 376.172 159.757 376.09C161.881 375.085 164.005 374.081 166.034 373.072C166.034 373.072 166.043 373.167 166.52 373.086ZM172.824 176.94C173.18 175.313 173.536 173.685 174.048 171.151C173.995 168.09 173.942 165.029 173.506 161.2C139.683 161.183 105.86 161.165 71.2552 161.494C71.2552 166.562 71.2552 171.63 71.2552 176.904C73.3806 176.904 75.169 176.904 77.6412 177.034C78.1008 176.985 78.5605 176.937 79.9011 176.97C82.2602 176.943 84.6194 176.915 87.7328 177.031C88.4958 176.982 89.2587 176.933 90.9518 176.981C101.628 176.953 112.304 176.925 123.733 177.04C124.495 176.993 125.257 176.946 126.808 176.996C127.865 176.963 128.923 176.931 130.785 177.042C131.869 176.992 132.954 176.943 134.676 176.986C135.102 176.955 135.529 176.924 136.64 177.03C137.1 176.984 137.56 176.939 138.912 176.991C141.601 176.959 144.29 176.927 147.656 177.03C148.111 176.984 148.565 176.938 149.939 176.987C153.952 176.953 157.965 176.919 162.81 177.036C164.213 176.987 165.617 176.938 167.855 176.977C169.25 176.93 170.644 176.883 172.824 176.94ZM16.3562 283.262C14.4505 289.927 16.1859 296.064 19.2061 302.304C19.2061 302.304 19.114 302.588 19.0988 303.383C19.5914 304.239 20.0841 305.094 20.8754 306.564C26.6599 324.65 36.1929 340.436 49.9885 353.532C51.2061 354.688 53.756 355.944 54.9001 355.424C61.3643 352.483 67.5881 349.014 74.163 345.585C72.5387 343.31 70.9759 341.188 69.4821 339.019C59.7967 324.951 51.5261 310.253 49.5445 292.331C50.813 283.5 49.5738 281.995 41.024 281.991C35.7365 281.989 30.4455 281.874 25.1632 282.038C22.4361 282.123 19.7247 282.709 17.0062 283.006C17.0062 283.006 17.0636 283.032 16.3562 283.262ZM94.9919 339.075C94.9919 339.075 95.0004 339.189 95.8496 339.148C101.577 338.079 107.303 337.01 113.243 335.902C108.74 318.972 104.334 302.837 100.235 286.625C99.4233 283.414 97.9873 282.513 94.2883 282.999C93.5168 283.049 92.7452 283.098 91.0431 283.066C81.4635 283.066 71.884 283.066 62.1673 283.066C62.1673 284.998 62.1673 286.464 62.0962 288.727C65.6118 308.054 73.9495 325.086 87.0514 340.734C89.7363 340.179 92.4212 339.624 94.9919 339.075ZM156.307 191.477C155.502 191.319 154.697 191.026 153.892 191.025C132.851 190.997 111.811 190.983 90.7712 191.038C89.5183 191.041 88.2669 191.636 86.3887 192.388C86.9695 195.573 87.5502 198.758 88.1333 202.724C90.2236 210.828 92.3139 218.932 94.5933 227.877C98.0951 242.237 101.597 256.597 105.107 271.739C111.022 297.31 117.45 322.741 125.34 347.926C126.755 346.046 127.586 344.266 127.969 342.394C132.569 319.941 137.078 297.47 141.66 275.014C147.038 248.655 152.465 222.307 158.075 195.344C157.712 194.212 157.349 193.079 156.307 191.477ZM100.283 351.97C96.7599 352.551 98.3129 354.097 99.646 355.509C106.021 362.26 112.404 369.003 118.834 375.701C119.41 376.301 120.34 376.562 121.106 376.98C121.576 376.751 122.046 376.523 122.515 376.295C120.395 369.362 118.275 362.429 116.41 354.57C116.276 350.44 114.114 349.053 110.214 349.949C107.146 350.654 104.068 351.313 100.283 351.97ZM92.1565 255.32C92.0528 254.904 91.9491 254.489 91.8359 253.299C88.3675 240.384 84.899 227.469 81.1206 213.4C68.9544 229.049 62.6717 245.608 61.0371 264.946C61.6508 265.98 62.2494 267.904 62.8803 267.915C73.7647 268.099 84.653 268.047 95.8436 268.047C94.7754 264.375 93.8532 261.205 92.9912 257.457C92.7405 256.957 92.4897 256.457 92.1565 255.32ZM19.9375 247.805C18.7662 254.392 17.5949 260.98 16.3735 267.85C27.3598 267.85 37.0977 267.85 46.7778 267.85C48.1063 260.084 49.3924 252.565 50.9757 244.314C54.2156 231.792 59.8087 220.363 67.099 209.734C68.9762 206.998 71.2263 204.497 72.918 201.657C75.6614 197.053 72.9429 192.531 67.7804 192.023C65.2579 191.775 62.8509 190.353 59.1394 189.009C40.454 203.128 26.2346 222.285 19.9375 247.805ZM228.973 264.233C224.834 231.904 210.357 205.746 183.384 186.653C182.005 188.873 180.993 190.504 179.116 192.119C173.68 191.128 171.914 193.758 170.84 198.891C167.334 215.652 163.208 232.282 159.011 249.713C157.732 255.49 156.452 261.266 155.461 267.86C159.255 267.913 163.05 268.009 166.845 268.013C186.232 268.034 205.62 268.044 225.008 268.018C226.943 268.016 229.814 268.964 228.973 264.233ZM82.4233 357.795C76.4715 360.047 70.5198 362.3 63.6319 364.907C77.6274 373.808 91.4634 379.351 107.7 381.909C104.07 378.147 101.204 375.031 98.1806 372.075C93.2459 367.25 88.2093 362.529 82.4233 357.795Z" fill="white"/>
<path d="M113.972 9.10393C113.984 9.41878 114.107 9.68146 114.67 10.2727C115.643 11.4774 116.287 12.3013 116.932 13.1253C116.932 13.1253 116.964 13.0379 117.003 13.3063C117.356 13.7433 117.671 13.912 117.986 14.0807C117.986 14.0807 117.873 13.9667 117.861 14.3971C124.791 27.8989 125.728 41.2658 119.825 54.9692C119.825 54.9692 119.935 54.9718 119.681 55.1037C119.229 55.8214 119.031 56.4073 118.833 56.9931C118.833 56.9931 118.948 56.938 118.64 57.0502C118.168 57.7627 118.004 58.363 117.84 58.9633C117.84 58.9633 117.921 58.8004 117.557 58.8765C116.736 59.6185 116.279 60.2843 115.822 60.9502C104.378 73.3816 92.8489 85.7367 81.5249 98.2768C75.9081 104.497 71.5051 111.494 70.3004 120.05C69.4061 126.402 70.9593 132.215 74.6995 138.141C76.2647 140.34 77.4456 142.002 78.6264 143.664C78.3826 144.073 78.1388 144.481 77.895 144.89C74.9372 143.578 71.9794 142.266 69.0216 140.953C69.0216 140.953 69.0117 141.007 68.8158 140.746C67.1247 139.585 65.6296 138.685 64.1344 137.785C64.1344 137.785 64.0982 137.864 63.9747 137.588C63.2523 137.141 62.6534 136.97 62.0544 136.799C62.0544 136.799 62.1122 136.925 62.1657 136.559C61.5094 135.724 60.7997 135.256 60.09 134.787C60.09 134.787 60.0177 134.897 60.0672 134.607C59.7538 134.179 59.3909 134.04 59.0281 133.901C59.0281 133.901 59.2688 133.968 59.2131 133.555C58.4543 132.398 57.7512 131.653 57.0482 130.909C57.0482 130.909 57.0187 130.974 56.9345 130.666C55.9427 129.177 55.0353 127.998 54.1278 126.819C54.1278 126.819 54.1039 126.935 54.087 126.561C52.9006 122.257 50.7688 118.323 50.7836 114.397C50.8069 108.273 52.286 102.155 53.1482 96.0344C53.1482 96.0344 53.0848 96.117 53.4436 96.0242C53.9505 95.3122 54.0987 94.693 54.2468 94.0738C54.2468 94.0738 54.179 94.2247 54.5347 94.1547C55.2915 93.4043 55.6926 92.7238 56.0938 92.0434C56.0938 92.0434 56.0243 92.0289 56.2787 91.8641C57.0798 90.8163 57.6265 89.9333 58.1732 89.0503C58.5038 88.9865 58.7459 88.8049 59.1375 88.1571C59.6294 87.6312 59.783 87.3896 59.8358 87.0841C59.8358 87.0841 60.0727 86.9182 60.3768 86.5854C62.4719 84.5114 64.263 82.7702 66.0541 81.029C66.0541 81.029 66.005 80.9987 66.3123 80.8784C66.8536 80.2184 67.0876 79.6785 67.3216 79.1387C67.3216 79.1387 67.281 79.4153 67.7063 79.3973C68.8408 78.6719 69.55 77.9644 70.2592 77.2569C70.2592 77.2569 70.2115 77.0849 70.4593 77.1203C70.85 76.7853 70.993 76.415 71.1359 76.0446C71.1359 76.0446 71.0829 76.3163 71.5285 76.2532C73.4159 74.9008 74.8577 73.6114 76.2994 72.3221C76.2994 72.3221 76.262 72.1073 76.4964 72.1407C76.8645 71.7992 76.9983 71.4244 77.1321 71.0496C77.1321 71.0496 77.1061 71.3428 77.5681 71.2761C83.1431 65.9564 88.2563 60.7035 93.3694 55.4506C93.3694 55.4506 93.3696 55.2139 93.5844 55.218C94.2693 54.5005 94.7393 53.7789 95.2094 53.0573C95.2094 53.0573 95.0956 52.9709 95.3303 52.9756C95.7455 52.6567 95.9259 52.333 96.1063 52.0094C96.1063 52.0094 96.0302 52.0309 96.2923 51.8802C97.0707 50.8348 97.5871 49.9399 98.1035 49.045C98.1035 49.045 98.0334 49.0336 98.305 48.8496C108.001 33.978 109.402 18.1363 104.494 0.660828C106.641 2.24556 107.822 3.11757 109.004 3.98959C109.004 3.98959 108.999 4.00122 109.174 4.25552C109.887 4.72501 110.427 4.9402 110.966 5.1554C110.966 5.1554 110.76 5.06703 110.825 5.4673C111.918 6.94635 112.945 8.02513 113.972 9.10393Z" fill="white"/>
<path d="M175.064 59.9912C171.072 68.2089 172.414 75.7666 178.14 82.5976C181.645 86.7788 185.448 90.7095 189.538 95.2102C190.8 96.5527 191.641 97.4378 192.482 98.3228C192.482 98.3228 192.432 98.453 192.573 98.786C193.422 100.143 194.129 101.167 194.837 102.191C194.837 102.191 194.787 102.134 194.854 102.542C198.573 110.512 197.681 117.991 194.51 125.428C194.51 125.428 194.371 125.591 194.172 125.829C190.916 129.325 187.857 132.585 184.799 135.844C184.799 135.844 184.901 135.911 184.632 135.931C184.195 136.282 184.026 136.611 183.858 136.941C183.858 136.941 183.966 136.777 183.522 136.778C180.837 137.855 178.687 139.255 176.33 139.921C173.731 140.655 170.942 140.715 168.236 141.068C168.541 141.033 168.775 140.885 169.283 140.25C170.457 138.603 171.285 137.331 172.114 136.058C172.114 136.058 172.042 136.038 172.313 135.848C172.841 134.826 173.098 133.994 173.354 133.163C173.354 133.163 173.393 133.216 173.715 133.042C177.614 125.06 178.065 117.363 173.226 109.852C173.226 109.852 173.371 109.889 173.376 109.459C170.997 105.604 168.613 102.179 166.229 98.7545C166.229 98.7545 166.14 98.8317 166.15 98.553C165.81 98.1144 165.459 97.9544 165.109 97.7945C165.109 97.7945 165.407 97.796 165.299 97.3421C157.432 87.2767 155.735 77.0562 162.089 66.0265C162.397 65.6983 162.705 65.3701 163.339 64.6104C165.47 62.4665 167.273 60.7541 169.077 59.0418C169.077 59.0418 169.019 59.0036 169.35 58.9194C172.095 57.6183 174.507 56.4014 176.92 55.1846C176.92 55.1846 176.911 55.0708 176.899 55.4105C176.279 57.1639 175.672 58.5775 175.064 59.9912Z" fill="white"/>
<path d="M154.112 49.9571C154.072 50.4214 154.032 50.8858 153.987 52.0967C152.903 57.2072 151.825 61.5712 150.746 65.9352C150.746 65.9352 150.849 65.9868 150.58 66.1338C148.776 70.3105 146.817 74.2365 145.803 78.3931C144.121 85.2854 143.963 92.1884 148.693 98.2566C148.693 98.2566 148.675 98.1762 148.637 98.4964C148.713 99.2032 148.826 99.5897 148.94 99.9763C138.652 95.5263 130.043 88.7415 126.921 77.8886C125.425 72.6874 127.235 66.1872 128.714 60.583C130.002 55.7018 133.213 51.3631 135.063 46.5869C137.779 39.5798 140.039 32.3963 142.588 25.0148C144.155 27.132 146.244 29.9544 148.703 33.3138C150.353 36.278 151.634 38.7051 152.914 41.1323C152.914 41.1323 152.936 41.0161 152.906 41.4241C153.288 44.5405 153.7 47.2487 154.112 49.9571Z" fill="white"/>
<path d="M343 319.8C331.8 319.8 322.067 318.2 313.8 315C305.667 311.8 299.467 307.533 295.2 302.2C290.933 296.867 288.8 291.133 288.8 285C288.8 279.933 290.133 276.067 292.8 273.4C295.467 270.6 299.533 269.2 305 269.2C305 280.533 308.4 289.2 315.2 295.2C322 301.067 331.533 304 343.8 304C355.533 304 364.533 302.067 370.8 298.2C377.067 294.2 380.2 288.333 380.2 280.6C380.2 275.933 379 272.133 376.6 269.2C374.333 266.133 370.4 263.533 364.8 261.4C359.333 259.133 351.4 256.867 341 254.6C328.733 251.933 319 248.867 311.8 245.4C304.6 241.8 299.333 237.467 296 232.4C292.667 227.333 291 221.067 291 213.6C291 206.133 293.067 199.6 297.2 194C301.467 188.267 307.467 183.867 315.2 180.8C322.933 177.733 331.933 176.2 342.2 176.2C351.933 176.2 360.6 177.6 368.2 180.4C375.933 183.067 381.933 186.933 386.2 192C390.6 196.933 392.8 202.533 392.8 208.8C392.8 212.667 391.533 215.733 389 218C386.6 220.133 382.8 221.2 377.6 221.2C376.133 211.067 372.533 203.667 366.8 199C361.2 194.333 353 192 342.2 192C331.8 192 323.8 193.867 318.2 197.6C312.6 201.2 309.8 206.333 309.8 213C309.8 217.667 310.8 221.533 312.8 224.6C314.933 227.533 318.467 230.067 323.4 232.2C328.467 234.333 335.533 236.4 344.6 238.4C358.2 241.333 368.867 244.6 376.6 248.2C384.467 251.8 390.133 256.2 393.6 261.4C397.067 266.6 398.8 273 398.8 280.6C398.8 292.733 393.733 302.333 383.6 309.4C373.467 316.333 359.933 319.8 343 319.8ZM425.711 191.8C425.711 186.867 427.311 183.067 430.511 180.4C433.844 177.6 438.511 176.2 444.511 176.2V304.2C444.511 309.133 442.844 313 439.511 315.8C436.311 318.467 431.711 319.8 425.711 319.8V191.8ZM532.394 319.8C521.194 319.8 511.194 317.733 502.394 313.6C493.594 309.333 486.727 303.467 481.794 296C476.994 288.4 474.594 279.8 474.594 270.2V225.4C474.594 215.8 476.994 207.267 481.794 199.8C486.727 192.333 493.527 186.533 502.194 182.4C510.86 178.267 520.794 176.2 531.994 176.2C543.194 176.2 553.127 178 561.794 181.6C570.46 185.067 577.194 189.933 581.994 196.2C586.927 202.467 589.394 209.667 589.394 217.8C589.394 221.8 588.06 224.933 585.394 227.2C582.727 229.467 579.194 230.6 574.794 230.6C573.86 230.6 572.46 230.467 570.594 230.2C570.86 228.6 570.994 226.067 570.994 222.6C570.994 216.867 569.327 211.733 565.994 207.2C562.794 202.667 558.194 199.133 552.194 196.6C546.327 194.067 539.594 192.8 531.994 192.8C524.527 192.8 517.86 194.2 511.994 197C506.127 199.667 501.527 203.533 498.194 208.6C494.994 213.533 493.394 219.133 493.394 225.4V270.2C493.394 276.6 494.994 282.333 498.194 287.4C501.527 292.333 506.127 296.2 511.994 299C517.994 301.8 524.794 303.2 532.394 303.2C540.127 303.2 546.994 301.933 552.994 299.4C558.994 296.867 563.66 293.4 566.994 289C570.327 284.467 571.994 279.267 571.994 273.4C571.994 271.267 571.86 268.733 571.594 265.8C573.46 265.533 574.794 265.4 575.594 265.4C579.994 265.4 583.527 266.667 586.194 269.2C588.994 271.733 590.394 275.133 590.394 279.4C590.394 287.267 587.927 294.267 582.994 300.4C578.06 306.533 571.194 311.333 562.394 314.8C553.727 318.133 543.727 319.8 532.394 319.8ZM665.913 319.8C654.846 319.8 644.913 317.667 636.113 313.4C627.446 309 620.646 303 615.713 295.4C610.779 287.667 608.313 279.133 608.313 269.8V225.8C608.313 216.467 610.779 208.067 615.713 200.6C620.646 193 627.446 187.067 636.113 182.8C644.913 178.4 654.846 176.2 665.913 176.2C677.113 176.2 687.046 178.4 695.713 182.8C704.513 187.067 711.379 193 716.313 200.6C721.246 208.067 723.713 216.467 723.713 225.8V269.8C723.713 279.133 721.246 287.667 716.313 295.4C711.379 303 704.513 309 695.713 313.4C686.913 317.667 676.979 319.8 665.913 319.8ZM665.913 303.4C678.313 303.4 687.979 300.333 694.913 294.2C701.846 288.067 705.313 279.867 705.313 269.6V226.2C705.313 215.933 701.846 207.8 694.913 201.8C687.979 195.667 678.313 192.6 665.913 192.6C653.646 192.6 644.046 195.667 637.113 201.8C630.179 207.8 626.713 215.933 626.713 226.2V269.6C626.713 279.867 630.179 288.067 637.113 294.2C644.046 300.333 653.646 303.4 665.913 303.4ZM746.711 191.8C746.711 186.867 748.378 183.067 751.711 180.4C755.044 177.6 759.644 176.2 765.511 176.2L813.911 292.4L810.111 301.8L811.511 302.4L862.711 176.2C868.578 176.2 873.178 177.6 876.511 180.4C879.978 183.2 881.711 187.067 881.711 192V319.8C869.311 319.8 863.111 314.667 863.111 304.4V220.2L868.311 206.4L866.711 206L822.111 314.4C821.444 316 820.378 317.267 818.911 318.2C817.444 319.267 815.911 319.8 814.311 319.8C812.578 319.8 810.978 319.333 809.511 318.4C808.044 317.467 806.978 316.133 806.311 314.4L761.711 205.8L760.111 206.4L765.311 220V304.4C765.311 309.467 763.711 313.333 760.511 316C757.444 318.533 752.844 319.8 746.711 319.8V191.8Z" fill="white"/>
<path d="M305.96 347.252C304.392 347.252 303.029 347.028 301.872 346.58C300.733 346.132 299.865 345.535 299.268 344.788C298.671 344.041 298.372 343.239 298.372 342.38C298.372 341.671 298.559 341.129 298.932 340.756C299.305 340.364 299.875 340.168 300.64 340.168C300.64 341.755 301.116 342.968 302.068 343.808C303.02 344.629 304.355 345.04 306.072 345.04C307.715 345.04 308.975 344.769 309.852 344.228C310.729 343.668 311.168 342.847 311.168 341.764C311.168 341.111 311 340.579 310.664 340.168C310.347 339.739 309.796 339.375 309.012 339.076C308.247 338.759 307.136 338.441 305.68 338.124C303.963 337.751 302.6 337.321 301.592 336.836C300.584 336.332 299.847 335.725 299.38 335.016C298.913 334.307 298.68 333.429 298.68 332.384C298.68 331.339 298.969 330.424 299.548 329.64C300.145 328.837 300.985 328.221 302.068 327.792C303.151 327.363 304.411 327.148 305.848 327.148C307.211 327.148 308.424 327.344 309.488 327.736C310.571 328.109 311.411 328.651 312.008 329.36C312.624 330.051 312.932 330.835 312.932 331.712C312.932 332.253 312.755 332.683 312.4 333C312.064 333.299 311.532 333.448 310.804 333.448C310.599 332.029 310.095 330.993 309.292 330.34C308.508 329.687 307.36 329.36 305.848 329.36C304.392 329.36 303.272 329.621 302.488 330.144C301.704 330.648 301.312 331.367 301.312 332.3C301.312 332.953 301.452 333.495 301.732 333.924C302.031 334.335 302.525 334.689 303.216 334.988C303.925 335.287 304.915 335.576 306.184 335.856C308.088 336.267 309.581 336.724 310.664 337.228C311.765 337.732 312.559 338.348 313.044 339.076C313.529 339.804 313.772 340.7 313.772 341.764C313.772 343.463 313.063 344.807 311.644 345.796C310.225 346.767 308.331 347.252 305.96 347.252ZM318.828 330.648C318.305 330.648 317.866 330.48 317.512 330.144C317.157 329.808 316.98 329.388 316.98 328.884C316.98 328.38 317.157 327.969 317.512 327.652C317.866 327.316 318.305 327.148 318.828 327.148C319.332 327.148 319.761 327.316 320.116 327.652C320.47 327.969 320.648 328.38 320.648 328.884C320.648 329.388 320.47 329.808 320.116 330.144C319.761 330.48 319.332 330.648 318.828 330.648ZM317.596 334.54C317.596 333.924 317.792 333.476 318.184 333.196C318.594 332.897 319.21 332.748 320.032 332.748V345.46C320.032 346.076 319.826 346.533 319.416 346.832C319.024 347.112 318.417 347.252 317.596 347.252V334.54ZM329.649 347.252C328.697 347.252 327.801 347.112 326.961 346.832C326.121 346.533 325.44 346.113 324.917 345.572C324.413 345.031 324.161 344.396 324.161 343.668C324.161 342.772 324.702 342.287 325.785 342.212C325.972 343.257 326.41 344.032 327.101 344.536C327.81 345.021 328.706 345.264 329.789 345.264C330.872 345.264 331.712 345.105 332.309 344.788C332.906 344.471 333.205 343.985 333.205 343.332C333.205 342.865 333.084 342.492 332.841 342.212C332.598 341.913 332.206 341.661 331.665 341.456C331.142 341.232 330.386 341.017 329.397 340.812C328.165 340.532 327.185 340.233 326.457 339.916C325.729 339.599 325.169 339.179 324.777 338.656C324.404 338.133 324.217 337.443 324.217 336.584C324.217 335.856 324.441 335.203 324.889 334.624C325.337 334.027 325.953 333.569 326.737 333.252C327.54 332.916 328.445 332.748 329.453 332.748C330.386 332.748 331.264 332.879 332.085 333.14C332.925 333.401 333.597 333.775 334.101 334.26C334.624 334.745 334.885 335.305 334.885 335.94C334.885 336.369 334.717 336.715 334.381 336.976C334.045 337.219 333.578 337.359 332.981 337.396C332.925 336.575 332.589 335.931 331.973 335.464C331.376 334.979 330.536 334.736 329.453 334.736C328.557 334.736 327.848 334.904 327.325 335.24C326.802 335.576 326.541 336.024 326.541 336.584C326.541 337.181 326.784 337.629 327.269 337.928C327.773 338.208 328.622 338.479 329.817 338.74C331.777 339.132 333.214 339.673 334.129 340.364C335.062 341.036 335.529 341.997 335.529 343.248C335.529 344.517 335.016 345.507 333.989 346.216C332.962 346.907 331.516 347.252 329.649 347.252ZM343.059 347.252C341.734 347.252 340.745 346.879 340.091 346.132C339.438 345.367 339.111 344.368 339.111 343.136V334.96H336.507C336.507 334.325 336.647 333.84 336.927 333.504C337.207 333.168 337.59 333 338.075 333H339.139V330.34C339.139 329.724 339.335 329.276 339.727 328.996C340.138 328.697 340.745 328.548 341.547 328.548V333H345.271C345.271 334.307 344.683 334.96 343.507 334.96H341.575V343.052C341.575 343.799 341.706 344.331 341.967 344.648C342.247 344.947 342.742 345.096 343.451 345.096C344.105 345.096 344.721 344.928 345.299 344.592C345.542 344.835 345.663 345.161 345.663 345.572C345.663 346.02 345.43 346.412 344.963 346.748C344.497 347.084 343.862 347.252 343.059 347.252ZM354.244 347.252C353.106 347.252 352.088 347.037 351.192 346.608C350.296 346.16 349.596 345.553 349.092 344.788C348.588 344.004 348.336 343.127 348.336 342.156V338.012C348.336 337.023 348.598 336.127 349.12 335.324C349.662 334.521 350.38 333.896 351.276 333.448C352.191 332.981 353.18 332.748 354.244 332.748C355.308 332.748 356.279 332.972 357.156 333.42C358.052 333.868 358.752 334.484 359.256 335.268C359.779 336.052 360.04 336.939 360.04 337.928V339.72C360.04 340.019 359.928 340.271 359.704 340.476C359.48 340.681 359.21 340.784 358.892 340.784H350.716V342.044C350.716 342.996 351.015 343.761 351.612 344.34C352.228 344.919 353.106 345.208 354.244 345.208C355.383 345.208 356.251 344.956 356.848 344.452C357.446 343.948 357.744 343.267 357.744 342.408C358.304 342.371 358.771 342.483 359.144 342.744C359.536 342.987 359.732 343.351 359.732 343.836C359.732 344.433 359.471 344.993 358.948 345.516C358.444 346.039 357.772 346.459 356.932 346.776C356.092 347.093 355.196 347.252 354.244 347.252ZM357.772 338.88V337.928C357.772 336.995 357.446 336.239 356.792 335.66C356.158 335.063 355.308 334.764 354.244 334.764C353.18 334.764 352.322 335.063 351.668 335.66C351.034 336.239 350.716 336.995 350.716 337.928V338.88H357.772ZM363.273 334.82C363.273 333.439 364.047 332.748 365.597 332.748V334.54C365.354 334.801 365.158 335.053 365.008 335.296L365.121 335.408C365.718 334.568 366.353 333.915 367.025 333.448C367.697 332.981 368.471 332.748 369.349 332.748C371.047 332.748 372.214 333.56 372.849 335.184C373.913 333.56 375.331 332.748 377.105 332.748C378.43 332.748 379.447 333.196 380.157 334.092C380.885 334.969 381.249 336.127 381.249 337.564V345.46C381.249 346.076 381.043 346.533 380.633 346.832C380.241 347.112 379.643 347.252 378.841 347.252V337.704C378.841 336.808 378.654 336.108 378.281 335.604C377.907 335.1 377.319 334.848 376.517 334.848C375.677 334.848 374.958 335.137 374.361 335.716C373.763 336.276 373.465 337.032 373.465 337.984V345.46C373.465 346.076 373.269 346.533 372.877 346.832C372.485 347.112 371.887 347.252 371.085 347.252V337.704C371.085 336.808 370.898 336.108 370.525 335.604C370.151 335.1 369.563 334.848 368.761 334.848C367.902 334.848 367.174 335.156 366.577 335.772C365.979 336.388 365.681 337.144 365.681 338.04V345.46C365.681 346.076 365.475 346.533 365.065 346.832C364.673 347.112 364.075 347.252 363.273 347.252V334.82ZM389.549 347.252C387.944 347.252 386.647 346.823 385.657 345.964C384.687 345.105 384.201 343.976 384.201 342.576C384.201 341.157 384.715 340.019 385.741 339.16C386.768 338.283 388.121 337.844 389.801 337.844C391.593 337.844 393.068 338.479 394.225 339.748L394.337 339.636C394.132 339.412 393.899 339.179 393.637 338.936V337.76C393.637 336.808 393.339 336.071 392.741 335.548C392.144 335.025 391.295 334.764 390.193 334.764C388.233 334.764 386.833 335.539 385.993 337.088C385.695 336.939 385.443 336.743 385.237 336.5C385.051 336.239 384.957 335.977 384.957 335.716C384.957 335.212 385.209 334.736 385.713 334.288C386.217 333.821 386.88 333.448 387.701 333.168C388.541 332.888 389.419 332.748 390.333 332.748C392.107 332.748 393.497 333.187 394.505 334.064C395.532 334.941 396.045 336.155 396.045 337.704V345.376C396.045 346.029 395.859 346.505 395.485 346.804C395.112 347.103 394.524 347.252 393.721 347.252V345.936C394.113 345.525 394.328 345.283 394.365 345.208L394.253 345.096C393.04 346.533 391.472 347.252 389.549 347.252ZM389.969 345.32C391.127 345.32 392.032 345.077 392.685 344.592C393.357 344.107 393.693 343.435 393.693 342.576C393.693 341.717 393.367 341.036 392.713 340.532C392.06 340.028 391.164 339.776 390.025 339.776C388.961 339.776 388.121 340.028 387.505 340.532C386.908 341.017 386.609 341.699 386.609 342.576C386.609 343.453 386.899 344.135 387.477 344.62C388.075 345.087 388.905 345.32 389.969 345.32ZM407.61 329.332C407.61 328.641 407.834 328.109 408.282 327.736C408.749 327.344 409.402 327.148 410.242 327.148V345.068C410.242 345.759 410.009 346.3 409.542 346.692C409.094 347.065 408.45 347.252 407.61 347.252V329.332ZM414.733 334.82C414.733 333.439 415.517 332.748 417.085 332.748V334.54C416.917 334.708 416.721 334.96 416.497 335.296L416.609 335.408C417.169 334.624 417.897 333.989 418.793 333.504C419.689 333 420.66 332.748 421.705 332.748C423.217 332.748 424.412 333.196 425.289 334.092C426.167 334.988 426.605 336.145 426.605 337.564V345.46C426.605 346.076 426.4 346.533 425.989 346.832C425.597 347.112 424.991 347.252 424.169 347.252V337.816C424.169 336.92 423.917 336.211 423.413 335.688C422.909 335.165 422.144 334.904 421.117 334.904C420.427 334.904 419.773 335.053 419.157 335.352C418.56 335.632 418.075 336.024 417.701 336.528C417.347 337.013 417.169 337.545 417.169 338.124V345.46C417.169 346.076 416.964 346.533 416.553 346.832C416.161 347.112 415.555 347.252 414.733 347.252V334.82ZM435.809 347.252C434.484 347.252 433.495 346.879 432.841 346.132C432.188 345.367 431.861 344.368 431.861 343.136V334.96H429.257C429.257 334.325 429.397 333.84 429.677 333.504C429.957 333.168 430.34 333 430.825 333H431.889V330.34C431.889 329.724 432.085 329.276 432.477 328.996C432.888 328.697 433.495 328.548 434.297 328.548V333H438.021C438.021 334.307 437.433 334.96 436.257 334.96H434.325V343.052C434.325 343.799 434.456 344.331 434.717 344.648C434.997 344.947 435.492 345.096 436.201 345.096C436.855 345.096 437.471 344.928 438.049 344.592C438.292 344.835 438.413 345.161 438.413 345.572C438.413 346.02 438.18 346.412 437.713 346.748C437.247 347.084 436.612 347.252 435.809 347.252ZM446.994 347.252C445.856 347.252 444.838 347.037 443.942 346.608C443.046 346.16 442.346 345.553 441.842 344.788C441.338 344.004 441.086 343.127 441.086 342.156V338.012C441.086 337.023 441.348 336.127 441.87 335.324C442.412 334.521 443.13 333.896 444.026 333.448C444.941 332.981 445.93 332.748 446.994 332.748C448.058 332.748 449.029 332.972 449.906 333.42C450.802 333.868 451.502 334.484 452.006 335.268C452.529 336.052 452.79 336.939 452.79 337.928V339.72C452.79 340.019 452.678 340.271 452.454 340.476C452.23 340.681 451.96 340.784 451.642 340.784H443.466V342.044C443.466 342.996 443.765 343.761 444.362 344.34C444.978 344.919 445.856 345.208 446.994 345.208C448.133 345.208 449.001 344.956 449.598 344.452C450.196 343.948 450.494 343.267 450.494 342.408C451.054 342.371 451.521 342.483 451.894 342.744C452.286 342.987 452.482 343.351 452.482 343.836C452.482 344.433 452.221 344.993 451.698 345.516C451.194 346.039 450.522 346.459 449.682 346.776C448.842 347.093 447.946 347.252 446.994 347.252ZM450.522 338.88V337.928C450.522 336.995 450.196 336.239 449.542 335.66C448.908 335.063 448.058 334.764 446.994 334.764C445.93 334.764 445.072 335.063 444.418 335.66C443.784 336.239 443.466 336.995 443.466 337.928V338.88H450.522ZM461.595 352.852C460.624 352.852 459.719 352.693 458.879 352.376C458.039 352.059 457.376 351.629 456.891 351.088C456.405 350.565 456.163 349.996 456.163 349.38C456.163 348.895 456.321 348.54 456.639 348.316C456.975 348.092 457.423 347.98 457.983 347.98C458.02 348.857 458.356 349.548 458.991 350.052C459.644 350.575 460.512 350.836 461.595 350.836C463.984 350.836 465.179 349.679 465.179 347.364V345.74C465.44 345.516 465.636 345.311 465.767 345.124L465.683 344.984C465.141 345.563 464.46 346.039 463.639 346.412C462.836 346.785 462.024 346.972 461.203 346.972C459.597 346.972 458.281 346.533 457.255 345.656C456.247 344.76 455.743 343.584 455.743 342.128V337.62C455.743 336.668 455.976 335.828 456.443 335.1C456.928 334.353 457.581 333.775 458.403 333.364C459.243 332.953 460.167 332.748 461.175 332.748C463.004 332.748 464.535 333.551 465.767 335.156L465.879 335.044L465.319 334.344C465.319 333.821 465.496 333.429 465.851 333.168C466.224 332.888 466.821 332.748 467.643 332.748V347.112C467.643 348.232 467.381 349.221 466.859 350.08C466.355 350.957 465.645 351.639 464.731 352.124C463.816 352.609 462.771 352.852 461.595 352.852ZM461.651 344.844C462.64 344.844 463.48 344.583 464.171 344.06C464.861 343.519 465.207 342.884 465.207 342.156V337.592C465.207 336.827 464.861 336.183 464.171 335.66C463.499 335.137 462.677 334.876 461.707 334.876C460.587 334.876 459.719 335.128 459.103 335.632C458.487 336.117 458.178 336.817 458.178 337.732V342.016C458.178 342.893 458.477 343.584 459.075 344.088C459.691 344.592 460.549 344.844 461.651 344.844ZM477.63 334.904C476.584 334.904 475.716 335.221 475.026 335.856C474.335 336.472 473.99 337.228 473.99 338.124V345.46C473.99 346.076 473.784 346.533 473.374 346.832C472.982 347.112 472.375 347.252 471.554 347.252V334.82C471.554 333.439 472.338 332.748 473.906 332.748V334.456C473.607 334.773 473.402 335.053 473.29 335.296L473.402 335.408C474.596 333.635 476.09 332.748 477.882 332.748C478.554 332.748 479.067 332.916 479.422 333.252C479.776 333.569 479.954 333.961 479.954 334.428C479.954 334.764 479.87 335.063 479.702 335.324C479.179 335.044 478.488 334.904 477.63 334.904ZM486.292 347.252C484.686 347.252 483.389 346.823 482.4 345.964C481.429 345.105 480.944 343.976 480.944 342.576C480.944 341.157 481.457 340.019 482.484 339.16C483.51 338.283 484.864 337.844 486.544 337.844C488.336 337.844 489.81 338.479 490.968 339.748L491.08 339.636C490.874 339.412 490.641 339.179 490.38 338.936V337.76C490.38 336.808 490.081 336.071 489.484 335.548C488.886 335.025 488.037 334.764 486.936 334.764C484.976 334.764 483.576 335.539 482.736 337.088C482.437 336.939 482.185 336.743 481.98 336.5C481.793 336.239 481.7 335.977 481.7 335.716C481.7 335.212 481.952 334.736 482.456 334.288C482.96 333.821 483.622 333.448 484.444 333.168C485.284 332.888 486.161 332.748 487.076 332.748C488.849 332.748 490.24 333.187 491.248 334.064C492.274 334.941 492.788 336.155 492.788 337.704V345.376C492.788 346.029 492.601 346.505 492.228 346.804C491.854 347.103 491.266 347.252 490.464 347.252V345.936C490.856 345.525 491.07 345.283 491.108 345.208L490.996 345.096C489.782 346.533 488.214 347.252 486.292 347.252ZM486.712 345.32C487.869 345.32 488.774 345.077 489.428 344.592C490.1 344.107 490.436 343.435 490.436 342.576C490.436 341.717 490.109 341.036 489.456 340.532C488.802 340.028 487.906 339.776 486.768 339.776C485.704 339.776 484.864 340.028 484.248 340.532C483.65 341.017 483.352 341.699 483.352 342.576C483.352 343.453 483.641 344.135 484.22 344.62C484.817 345.087 485.648 345.32 486.712 345.32ZM501.697 347.252C500.092 347.252 498.785 346.813 497.777 345.936C496.788 345.04 496.293 343.855 496.293 342.38V337.592C496.293 336.64 496.527 335.8 496.993 335.072C497.46 334.325 498.104 333.756 498.925 333.364C499.765 332.953 500.727 332.748 501.809 332.748C502.687 332.748 503.499 332.935 504.245 333.308C504.992 333.663 505.645 334.139 506.205 334.736L506.289 334.596C506.159 334.409 505.963 334.204 505.701 333.98V329.052C505.701 328.436 505.907 327.969 506.317 327.652C506.728 327.316 507.344 327.148 508.165 327.148V345.264C508.165 345.88 507.979 346.365 507.605 346.72C507.251 347.075 506.672 347.252 505.869 347.252V345.684C506.131 345.348 506.308 345.105 506.401 344.956L506.317 344.844C505.72 345.591 505.057 346.179 504.329 346.608C503.601 347.037 502.724 347.252 501.697 347.252ZM502.229 345.096C503.219 345.096 504.049 344.844 504.721 344.34C505.393 343.817 505.729 343.173 505.729 342.408V337.564C505.729 336.817 505.412 336.192 504.777 335.688C504.143 335.165 503.284 334.904 502.201 334.904C501.1 334.904 500.241 335.156 499.625 335.66C499.028 336.145 498.729 336.827 498.729 337.704V342.268C498.729 343.183 499.028 343.883 499.625 344.368C500.241 344.853 501.109 345.096 502.229 345.096ZM517.397 347.252C516.259 347.252 515.223 347.037 514.289 346.608C513.375 346.179 512.656 345.6 512.133 344.872C511.629 344.125 511.377 343.295 511.377 342.38V337.788C511.377 336.855 511.629 336.005 512.133 335.24C512.656 334.475 513.375 333.868 514.289 333.42C515.204 332.972 516.24 332.748 517.397 332.748C518.555 332.748 519.591 332.972 520.505 333.42C521.439 333.868 522.157 334.475 522.661 335.24C523.184 336.005 523.445 336.855 523.445 337.788V342.38C523.445 343.295 523.184 344.125 522.661 344.872C522.139 345.6 521.42 346.179 520.505 346.608C519.591 347.037 518.555 347.252 517.397 347.252ZM517.397 345.152C518.517 345.152 519.404 344.891 520.057 344.368C520.729 343.827 521.065 343.127 521.065 342.268V337.872C521.065 336.976 520.729 336.248 520.057 335.688C519.404 335.128 518.517 334.848 517.397 334.848C516.296 334.848 515.409 335.128 514.737 335.688C514.065 336.248 513.729 336.976 513.729 337.872V342.268C513.729 343.127 514.056 343.827 514.709 344.368C515.381 344.891 516.277 345.152 517.397 345.152ZM539.022 347.252C537.416 347.252 536.11 346.813 535.102 345.936C534.112 345.04 533.618 343.855 533.618 342.38V337.592C533.618 336.64 533.851 335.8 534.318 335.072C534.784 334.325 535.428 333.756 536.25 333.364C537.09 332.953 538.051 332.748 539.133 332.748C540.011 332.748 540.823 332.935 541.57 333.308C542.316 333.663 542.97 334.139 543.53 334.736L543.614 334.596C543.483 334.409 543.287 334.204 543.026 333.98V329.052C543.026 328.436 543.231 327.969 543.642 327.652C544.052 327.316 544.668 327.148 545.49 327.148V345.264C545.49 345.88 545.303 346.365 544.93 346.72C544.575 347.075 543.996 347.252 543.194 347.252V345.684C543.455 345.348 543.632 345.105 543.726 344.956L543.642 344.844C543.044 345.591 542.382 346.179 541.654 346.608C540.926 347.037 540.048 347.252 539.022 347.252ZM539.554 345.096C540.543 345.096 541.374 344.844 542.046 344.34C542.718 343.817 543.054 343.173 543.054 342.408V337.564C543.054 336.817 542.736 336.192 542.102 335.688C541.467 335.165 540.608 334.904 539.526 334.904C538.424 334.904 537.566 335.156 536.95 335.66C536.352 336.145 536.053 336.827 536.053 337.704V342.268C536.053 343.183 536.352 343.883 536.95 344.368C537.566 344.853 538.434 345.096 539.554 345.096ZM555.029 347.252C553.891 347.252 552.873 347.037 551.977 346.608C551.081 346.16 550.381 345.553 549.877 344.788C549.373 344.004 549.121 343.127 549.121 342.156V338.012C549.121 337.023 549.383 336.127 549.905 335.324C550.447 334.521 551.165 333.896 552.061 333.448C552.976 332.981 553.965 332.748 555.029 332.748C556.093 332.748 557.064 332.972 557.941 333.42C558.837 333.868 559.537 334.484 560.041 335.268C560.564 336.052 560.825 336.939 560.825 337.928V339.72C560.825 340.019 560.713 340.271 560.489 340.476C560.265 340.681 559.995 340.784 559.677 340.784H551.501V342.044C551.501 342.996 551.8 343.761 552.397 344.34C553.013 344.919 553.891 345.208 555.029 345.208C556.168 345.208 557.036 344.956 557.633 344.452C558.231 343.948 558.529 343.267 558.529 342.408C559.089 342.371 559.556 342.483 559.929 342.744C560.321 342.987 560.517 343.351 560.517 343.836C560.517 344.433 560.256 344.993 559.733 345.516C559.229 346.039 558.557 346.459 557.717 346.776C556.877 347.093 555.981 347.252 555.029 347.252ZM558.557 338.88V337.928C558.557 336.995 558.231 336.239 557.577 335.66C556.943 335.063 556.093 334.764 555.029 334.764C553.965 334.764 553.107 335.063 552.453 335.66C551.819 336.239 551.501 336.995 551.501 337.928V338.88H558.557ZM579.088 347.252C577.52 347.252 576.12 346.963 574.888 346.384C573.656 345.787 572.695 344.965 572.004 343.92C571.332 342.856 570.996 341.652 570.996 340.308V334.036C570.996 332.692 571.332 331.497 572.004 330.452C572.695 329.407 573.647 328.595 574.86 328.016C576.074 327.437 577.464 327.148 579.032 327.148C580.6 327.148 581.991 327.4 583.204 327.904C584.418 328.389 585.36 329.071 586.032 329.948C586.723 330.825 587.068 331.833 587.068 332.972C587.068 333.532 586.882 333.971 586.508 334.288C586.135 334.605 585.64 334.764 585.024 334.764C584.894 334.764 584.698 334.745 584.436 334.708C584.474 334.484 584.492 334.129 584.492 333.644C584.492 332.841 584.259 332.123 583.792 331.488C583.344 330.853 582.7 330.359 581.86 330.004C581.039 329.649 580.096 329.472 579.032 329.472C577.987 329.472 577.054 329.668 576.232 330.06C575.411 330.433 574.767 330.975 574.3 331.684C573.852 332.375 573.628 333.159 573.628 334.036V340.308C573.628 341.204 573.852 342.007 574.3 342.716C574.767 343.407 575.411 343.948 576.232 344.34C577.072 344.732 578.024 344.928 579.088 344.928C580.171 344.928 581.132 344.751 581.972 344.396C582.812 344.041 583.466 343.556 583.932 342.94C584.399 342.305 584.632 341.577 584.632 340.756C584.632 340.457 584.614 340.103 584.576 339.692C584.838 339.655 585.024 339.636 585.136 339.636C585.752 339.636 586.247 339.813 586.62 340.168C587.012 340.523 587.208 340.999 587.208 341.596C587.208 342.697 586.863 343.677 586.172 344.536C585.482 345.395 584.52 346.067 583.288 346.552C582.075 347.019 580.675 347.252 579.088 347.252ZM595.026 347.252C593.887 347.252 592.851 347.037 591.918 346.608C591.003 346.179 590.285 345.6 589.762 344.872C589.258 344.125 589.006 343.295 589.006 342.38V337.788C589.006 336.855 589.258 336.005 589.762 335.24C590.285 334.475 591.003 333.868 591.918 333.42C592.833 332.972 593.869 332.748 595.026 332.748C596.183 332.748 597.219 332.972 598.134 333.42C599.067 333.868 599.786 334.475 600.29 335.24C600.813 336.005 601.074 336.855 601.074 337.788V342.38C601.074 343.295 600.813 344.125 600.29 344.872C599.767 345.6 599.049 346.179 598.134 346.608C597.219 347.037 596.183 347.252 595.026 347.252ZM595.026 345.152C596.146 345.152 597.033 344.891 597.686 344.368C598.358 343.827 598.694 343.127 598.694 342.268V337.872C598.694 336.976 598.358 336.248 597.686 335.688C597.033 335.128 596.146 334.848 595.026 334.848C593.925 334.848 593.038 335.128 592.366 335.688C591.694 336.248 591.358 336.976 591.358 337.872V342.268C591.358 343.127 591.685 343.827 592.338 344.368C593.01 344.891 593.906 345.152 595.026 345.152ZM604.308 334.82C604.308 333.439 605.092 332.748 606.66 332.748V334.54C606.492 334.708 606.296 334.96 606.072 335.296L606.184 335.408C606.744 334.624 607.472 333.989 608.368 333.504C609.264 333 610.234 332.748 611.28 332.748C612.792 332.748 613.986 333.196 614.864 334.092C615.741 334.988 616.18 336.145 616.18 337.564V345.46C616.18 346.076 615.974 346.533 615.564 346.832C615.172 347.112 614.565 347.252 613.744 347.252V337.816C613.744 336.92 613.492 336.211 612.988 335.688C612.484 335.165 611.718 334.904 610.692 334.904C610.001 334.904 609.348 335.053 608.732 335.352C608.134 335.632 607.649 336.024 607.276 336.528C606.921 337.013 606.744 337.545 606.744 338.124V345.46C606.744 346.076 606.538 346.533 606.128 346.832C605.736 347.112 605.129 347.252 604.308 347.252V334.82ZM625.384 352.852C624.413 352.852 623.508 352.693 622.668 352.376C621.828 352.059 621.165 351.629 620.68 351.088C620.194 350.565 619.952 349.996 619.952 349.38C619.952 348.895 620.11 348.54 620.428 348.316C620.764 348.092 621.212 347.98 621.772 347.98C621.809 348.857 622.145 349.548 622.78 350.052C623.433 350.575 624.301 350.836 625.384 350.836C627.773 350.836 628.968 349.679 628.968 347.364V345.74C629.229 345.516 629.425 345.311 629.556 345.124L629.472 344.984C628.93 345.563 628.249 346.039 627.428 346.412C626.625 346.785 625.813 346.972 624.992 346.972C623.386 346.972 622.07 346.533 621.044 345.656C620.036 344.76 619.532 343.584 619.532 342.128V337.62C619.532 336.668 619.765 335.828 620.232 335.1C620.717 334.353 621.37 333.775 622.192 333.364C623.032 332.953 623.956 332.748 624.964 332.748C626.793 332.748 628.324 333.551 629.556 335.156L629.668 335.044L629.108 334.344C629.108 333.821 629.285 333.429 629.64 333.168C630.013 332.888 630.61 332.748 631.432 332.748V347.112C631.432 348.232 631.17 349.221 630.648 350.08C630.144 350.957 629.434 351.639 628.52 352.124C627.605 352.609 626.56 352.852 625.384 352.852ZM625.44 344.844C626.429 344.844 627.269 344.583 627.96 344.06C628.65 343.519 628.996 342.884 628.996 342.156V337.592C628.996 336.827 628.65 336.183 627.96 335.66C627.288 335.137 626.466 334.876 625.496 334.876C624.376 334.876 623.508 335.128 622.892 335.632C622.276 336.117 621.968 336.817 621.968 337.732V342.016C621.968 342.893 622.266 343.584 622.864 344.088C623.48 344.592 624.338 344.844 625.44 344.844ZM641.419 334.904C640.373 334.904 639.505 335.221 638.815 335.856C638.124 336.472 637.779 337.228 637.779 338.124V345.46C637.779 346.076 637.573 346.533 637.163 346.832C636.771 347.112 636.164 347.252 635.343 347.252V334.82C635.343 333.439 636.127 332.748 637.695 332.748V334.456C637.396 334.773 637.191 335.053 637.079 335.296L637.191 335.408C638.385 333.635 639.879 332.748 641.671 332.748C642.343 332.748 642.856 332.916 643.211 333.252C643.565 333.569 643.743 333.961 643.743 334.428C643.743 334.764 643.659 335.063 643.491 335.324C642.968 335.044 642.277 334.904 641.419 334.904ZM651.061 347.252C649.922 347.252 648.905 347.037 648.009 346.608C647.113 346.16 646.413 345.553 645.909 344.788C645.405 344.004 645.153 343.127 645.153 342.156V338.012C645.153 337.023 645.414 336.127 645.937 335.324C646.478 334.521 647.197 333.896 648.093 333.448C649.007 332.981 649.997 332.748 651.061 332.748C652.125 332.748 653.095 332.972 653.973 333.42C654.869 333.868 655.569 334.484 656.073 335.268C656.595 336.052 656.857 336.939 656.857 337.928V339.72C656.857 340.019 656.745 340.271 656.521 340.476C656.297 340.681 656.026 340.784 655.709 340.784H647.533V342.044C647.533 342.996 647.831 343.761 648.429 344.34C649.045 344.919 649.922 345.208 651.061 345.208C652.199 345.208 653.067 344.956 653.665 344.452C654.262 343.948 654.561 343.267 654.561 342.408C655.121 342.371 655.587 342.483 655.961 342.744C656.353 342.987 656.549 343.351 656.549 343.836C656.549 344.433 656.287 344.993 655.765 345.516C655.261 346.039 654.589 346.459 653.749 346.776C652.909 347.093 652.013 347.252 651.061 347.252ZM654.589 338.88V337.928C654.589 336.995 654.262 336.239 653.609 335.66C652.974 335.063 652.125 334.764 651.061 334.764C649.997 334.764 649.138 335.063 648.485 335.66C647.85 336.239 647.533 336.995 647.533 337.928V338.88H654.589ZM665.157 347.252C664.205 347.252 663.309 347.112 662.469 346.832C661.629 346.533 660.948 346.113 660.425 345.572C659.921 345.031 659.669 344.396 659.669 343.668C659.669 342.772 660.21 342.287 661.293 342.212C661.48 343.257 661.918 344.032 662.609 344.536C663.318 345.021 664.214 345.264 665.297 345.264C666.38 345.264 667.22 345.105 667.817 344.788C668.414 344.471 668.713 343.985 668.713 343.332C668.713 342.865 668.592 342.492 668.349 342.212C668.106 341.913 667.714 341.661 667.173 341.456C666.65 341.232 665.894 341.017 664.905 340.812C663.673 340.532 662.693 340.233 661.965 339.916C661.237 339.599 660.677 339.179 660.285 338.656C659.912 338.133 659.725 337.443 659.725 336.584C659.725 335.856 659.949 335.203 660.397 334.624C660.845 334.027 661.461 333.569 662.245 333.252C663.048 332.916 663.953 332.748 664.961 332.748C665.894 332.748 666.772 332.879 667.593 333.14C668.433 333.401 669.105 333.775 669.609 334.26C670.132 334.745 670.393 335.305 670.393 335.94C670.393 336.369 670.225 336.715 669.889 336.976C669.553 337.219 669.086 337.359 668.489 337.396C668.433 336.575 668.097 335.931 667.481 335.464C666.884 334.979 666.044 334.736 664.961 334.736C664.065 334.736 663.356 334.904 662.833 335.24C662.31 335.576 662.049 336.024 662.049 336.584C662.049 337.181 662.292 337.629 662.777 337.928C663.281 338.208 664.13 338.479 665.325 338.74C667.285 339.132 668.722 339.673 669.637 340.364C670.57 341.036 671.037 341.997 671.037 343.248C671.037 344.517 670.524 345.507 669.497 346.216C668.47 346.907 667.024 347.252 665.157 347.252ZM679.321 347.252C678.369 347.252 677.473 347.112 676.633 346.832C675.793 346.533 675.112 346.113 674.589 345.572C674.085 345.031 673.833 344.396 673.833 343.668C673.833 342.772 674.374 342.287 675.457 342.212C675.644 343.257 676.082 344.032 676.773 344.536C677.482 345.021 678.378 345.264 679.461 345.264C680.544 345.264 681.384 345.105 681.981 344.788C682.578 344.471 682.877 343.985 682.877 343.332C682.877 342.865 682.756 342.492 682.513 342.212C682.27 341.913 681.878 341.661 681.337 341.456C680.814 341.232 680.058 341.017 679.069 340.812C677.837 340.532 676.857 340.233 676.129 339.916C675.401 339.599 674.841 339.179 674.449 338.656C674.076 338.133 673.889 337.443 673.889 336.584C673.889 335.856 674.113 335.203 674.561 334.624C675.009 334.027 675.625 333.569 676.409 333.252C677.212 332.916 678.117 332.748 679.125 332.748C680.058 332.748 680.936 332.879 681.757 333.14C682.597 333.401 683.269 333.775 683.773 334.26C684.296 334.745 684.557 335.305 684.557 335.94C684.557 336.369 684.389 336.715 684.053 336.976C683.717 337.219 683.25 337.359 682.653 337.396C682.597 336.575 682.261 335.931 681.645 335.464C681.048 334.979 680.208 334.736 679.125 334.736C678.229 334.736 677.52 334.904 676.997 335.24C676.474 335.576 676.213 336.024 676.213 336.584C676.213 337.181 676.456 337.629 676.941 337.928C677.445 338.208 678.294 338.479 679.489 338.74C681.449 339.132 682.886 339.673 683.801 340.364C684.734 341.036 685.201 341.997 685.201 343.248C685.201 344.517 684.688 345.507 683.661 346.216C682.634 346.907 681.188 347.252 679.321 347.252ZM693.026 347.252C691.887 347.252 690.851 347.037 689.918 346.608C689.003 346.179 688.285 345.6 687.762 344.872C687.258 344.125 687.006 343.295 687.006 342.38V337.788C687.006 336.855 687.258 336.005 687.762 335.24C688.285 334.475 689.003 333.868 689.918 333.42C690.833 332.972 691.869 332.748 693.026 332.748C694.183 332.748 695.219 332.972 696.134 333.42C697.067 333.868 697.786 334.475 698.29 335.24C698.813 336.005 699.074 336.855 699.074 337.788V342.38C699.074 343.295 698.813 344.125 698.29 344.872C697.767 345.6 697.049 346.179 696.134 346.608C695.219 347.037 694.183 347.252 693.026 347.252ZM693.026 345.152C694.146 345.152 695.033 344.891 695.686 344.368C696.358 343.827 696.694 343.127 696.694 342.268V337.872C696.694 336.976 696.358 336.248 695.686 335.688C695.033 335.128 694.146 334.848 693.026 334.848C691.925 334.848 691.038 335.128 690.366 335.688C689.694 336.248 689.358 336.976 689.358 337.872V342.268C689.358 343.127 689.685 343.827 690.338 344.368C691.01 344.891 691.906 345.152 693.026 345.152ZM706.665 347.252C705.713 347.252 704.817 347.112 703.977 346.832C703.137 346.533 702.455 346.113 701.933 345.572C701.429 345.031 701.177 344.396 701.177 343.668C701.177 342.772 701.718 342.287 702.801 342.212C702.987 343.257 703.426 344.032 704.117 344.536C704.826 345.021 705.722 345.264 706.805 345.264C707.887 345.264 708.727 345.105 709.325 344.788C709.922 344.471 710.221 343.985 710.221 343.332C710.221 342.865 710.099 342.492 709.857 342.212C709.614 341.913 709.222 341.661 708.681 341.456C708.158 341.232 707.402 341.017 706.413 340.812C705.181 340.532 704.201 340.233 703.473 339.916C702.745 339.599 702.185 339.179 701.793 338.656C701.419 338.133 701.233 337.443 701.233 336.584C701.233 335.856 701.457 335.203 701.905 334.624C702.353 334.027 702.969 333.569 703.753 333.252C704.555 332.916 705.461 332.748 706.469 332.748C707.402 332.748 708.279 332.879 709.101 333.14C709.941 333.401 710.613 333.775 711.117 334.26C711.639 334.745 711.901 335.305 711.901 335.94C711.901 336.369 711.733 336.715 711.397 336.976C711.061 337.219 710.594 337.359 709.997 337.396C709.941 336.575 709.605 335.931 708.989 335.464C708.391 334.979 707.551 334.736 706.469 334.736C705.573 334.736 704.863 334.904 704.341 335.24C703.818 335.576 703.557 336.024 703.557 336.584C703.557 337.181 703.799 337.629 704.285 337.928C704.789 338.208 705.638 338.479 706.833 338.74C708.793 339.132 710.23 339.673 711.145 340.364C712.078 341.036 712.545 341.997 712.545 343.248C712.545 344.517 712.031 345.507 711.005 346.216C709.978 346.907 708.531 347.252 706.665 347.252ZM728.104 347.252C726.498 347.252 725.192 346.813 724.184 345.936C723.194 345.04 722.7 343.855 722.7 342.38V337.592C722.7 336.64 722.933 335.8 723.4 335.072C723.866 334.325 724.51 333.756 725.332 333.364C726.172 332.953 727.133 332.748 728.216 332.748C729.093 332.748 729.905 332.935 730.652 333.308C731.398 333.663 732.052 334.139 732.612 334.736L732.696 334.596C732.565 334.409 732.369 334.204 732.108 333.98V329.052C732.108 328.436 732.313 327.969 732.724 327.652C733.134 327.316 733.75 327.148 734.572 327.148V345.264C734.572 345.88 734.385 346.365 734.012 346.72C733.657 347.075 733.078 347.252 732.276 347.252V345.684C732.537 345.348 732.714 345.105 732.808 344.956L732.724 344.844C732.126 345.591 731.464 346.179 730.736 346.608C730.008 347.037 729.13 347.252 728.104 347.252ZM728.636 345.096C729.625 345.096 730.456 344.844 731.128 344.34C731.8 343.817 732.136 343.173 732.136 342.408V337.564C732.136 336.817 731.818 336.192 731.184 335.688C730.549 335.165 729.69 334.904 728.608 334.904C727.506 334.904 726.648 335.156 726.032 335.66C725.434 336.145 725.136 336.827 725.136 337.704V342.268C725.136 343.183 725.434 343.883 726.032 344.368C726.648 344.853 727.516 345.096 728.636 345.096ZM743.131 347.252C741.526 347.252 740.229 346.823 739.239 345.964C738.269 345.105 737.783 343.976 737.783 342.576C737.783 341.157 738.297 340.019 739.323 339.16C740.35 338.283 741.703 337.844 743.383 337.844C745.175 337.844 746.65 338.479 747.807 339.748L747.919 339.636C747.714 339.412 747.481 339.179 747.219 338.936V337.76C747.219 336.808 746.921 336.071 746.323 335.548C745.726 335.025 744.877 334.764 743.775 334.764C741.815 334.764 740.415 335.539 739.575 337.088C739.277 336.939 739.025 336.743 738.819 336.5C738.633 336.239 738.539 335.977 738.539 335.716C738.539 335.212 738.791 334.736 739.295 334.288C739.799 333.821 740.462 333.448 741.283 333.168C742.123 332.888 743.001 332.748 743.915 332.748C745.689 332.748 747.079 333.187 748.087 334.064C749.114 334.941 749.627 336.155 749.627 337.704V345.376C749.627 346.029 749.441 346.505 749.067 346.804C748.694 347.103 748.106 347.252 747.303 347.252V345.936C747.695 345.525 747.91 345.283 747.947 345.208L747.835 345.096C746.622 346.533 745.054 347.252 743.131 347.252ZM743.551 345.32C744.709 345.32 745.614 345.077 746.267 344.592C746.939 344.107 747.275 343.435 747.275 342.576C747.275 341.717 746.949 341.036 746.295 340.532C745.642 340.028 744.746 339.776 743.607 339.776C742.543 339.776 741.703 340.028 741.087 340.532C740.49 341.017 740.191 341.699 740.191 342.576C740.191 343.453 740.481 344.135 741.059 344.62C741.657 345.087 742.487 345.32 743.551 345.32ZM760.632 329.332C760.632 328.641 760.865 328.109 761.332 327.736C761.799 327.344 762.443 327.148 763.264 327.148L770.04 343.416L769.508 344.732L769.704 344.816L776.872 327.148C777.693 327.148 778.337 327.344 778.804 327.736C779.289 328.128 779.532 328.669 779.532 329.36V347.252C777.796 347.252 776.928 346.533 776.928 345.096V333.308L777.656 331.376L777.432 331.32L771.188 346.496C771.095 346.72 770.945 346.897 770.74 347.028C770.535 347.177 770.32 347.252 770.096 347.252C769.853 347.252 769.629 347.187 769.424 347.056C769.219 346.925 769.069 346.739 768.976 346.496L762.732 331.292L762.508 331.376L763.236 333.28V345.096C763.236 345.805 763.012 346.347 762.564 346.72C762.135 347.075 761.491 347.252 760.632 347.252V329.332ZM788.784 347.252C787.645 347.252 786.609 347.037 785.676 346.608C784.761 346.179 784.043 345.6 783.52 344.872C783.016 344.125 782.764 343.295 782.764 342.38V337.788C782.764 336.855 783.016 336.005 783.52 335.24C784.043 334.475 784.761 333.868 785.676 333.42C786.591 332.972 787.627 332.748 788.784 332.748C789.941 332.748 790.977 332.972 791.892 333.42C792.825 333.868 793.544 334.475 794.048 335.24C794.571 336.005 794.832 336.855 794.832 337.788V342.38C794.832 343.295 794.571 344.125 794.048 344.872C793.525 345.6 792.807 346.179 791.892 346.608C790.977 347.037 789.941 347.252 788.784 347.252ZM788.784 345.152C789.904 345.152 790.791 344.891 791.444 344.368C792.116 343.827 792.452 343.127 792.452 342.268V337.872C792.452 336.976 792.116 336.248 791.444 335.688C790.791 335.128 789.904 334.848 788.784 334.848C787.683 334.848 786.796 335.128 786.124 335.688C785.452 336.248 785.116 336.976 785.116 337.872V342.268C785.116 343.127 785.443 343.827 786.096 344.368C786.768 344.891 787.664 345.152 788.784 345.152ZM803.255 347.252C802.117 347.252 801.099 347.047 800.203 346.636C799.307 346.225 798.607 345.647 798.103 344.9C797.618 344.153 797.375 343.304 797.375 342.352V337.816C797.375 336.827 797.618 335.949 798.103 335.184C798.607 334.419 799.298 333.821 800.175 333.392C801.053 332.963 802.061 332.748 803.199 332.748C804.263 332.748 805.206 332.907 806.027 333.224C806.867 333.523 807.521 333.952 807.987 334.512C808.454 335.072 808.687 335.707 808.687 336.416C808.687 336.883 808.501 337.265 808.127 337.564C807.773 337.844 807.306 337.965 806.727 337.928C806.727 337.032 806.401 336.304 805.747 335.744C805.113 335.184 804.282 334.904 803.255 334.904C802.229 334.904 801.398 335.184 800.763 335.744C800.129 336.285 799.811 336.995 799.811 337.872V342.24C799.811 343.08 800.138 343.771 800.791 344.312C801.445 344.835 802.285 345.096 803.311 345.096C804.338 345.096 805.169 344.816 805.803 344.256C806.457 343.696 806.783 342.977 806.783 342.1C807.381 342.063 807.857 342.184 808.211 342.464C808.585 342.725 808.771 343.099 808.771 343.584C808.771 344.293 808.538 344.928 808.071 345.488C807.605 346.048 806.951 346.487 806.111 346.804C805.271 347.103 804.319 347.252 803.255 347.252ZM813.831 330.648C813.309 330.648 812.87 330.48 812.515 330.144C812.161 329.808 811.983 329.388 811.983 328.884C811.983 328.38 812.161 327.969 812.515 327.652C812.87 327.316 813.309 327.148 813.831 327.148C814.335 327.148 814.765 327.316 815.119 327.652C815.474 327.969 815.651 328.38 815.651 328.884C815.651 329.388 815.474 329.808 815.119 330.144C814.765 330.48 814.335 330.648 813.831 330.648ZM812.599 334.54C812.599 333.924 812.795 333.476 813.187 333.196C813.598 332.897 814.214 332.748 815.035 332.748V345.46C815.035 346.076 814.83 346.533 814.419 346.832C814.027 347.112 813.421 347.252 812.599 347.252V334.54ZM824.709 347.252C823.104 347.252 821.797 346.813 820.789 345.936C819.8 345.04 819.305 343.855 819.305 342.38V337.592C819.305 336.64 819.538 335.8 820.005 335.072C820.472 334.325 821.116 333.756 821.937 333.364C822.777 332.953 823.738 332.748 824.821 332.748C825.698 332.748 826.51 332.935 827.257 333.308C828.004 333.663 828.657 334.139 829.217 334.736L829.301 334.596C829.17 334.409 828.974 334.204 828.713 333.98V329.052C828.713 328.436 828.918 327.969 829.329 327.652C829.74 327.316 830.356 327.148 831.177 327.148V345.264C831.177 345.88 830.99 346.365 830.617 346.72C830.262 347.075 829.684 347.252 828.881 347.252V345.684C829.142 345.348 829.32 345.105 829.413 344.956L829.329 344.844C828.732 345.591 828.069 346.179 827.341 346.608C826.613 347.037 825.736 347.252 824.709 347.252ZM825.241 345.096C826.23 345.096 827.061 344.844 827.733 344.34C828.405 343.817 828.741 343.173 828.741 342.408V337.564C828.741 336.817 828.424 336.192 827.789 335.688C827.154 335.165 826.296 334.904 825.213 334.904C824.112 334.904 823.253 335.156 822.637 335.66C822.04 336.145 821.741 336.827 821.741 337.704V342.268C821.741 343.183 822.04 343.883 822.637 344.368C823.253 344.853 824.121 345.096 825.241 345.096ZM839.737 347.252C838.132 347.252 836.834 346.823 835.845 345.964C834.874 345.105 834.389 343.976 834.389 342.576C834.389 341.157 834.902 340.019 835.929 339.16C836.956 338.283 838.309 337.844 839.989 337.844C841.781 337.844 843.256 338.479 844.413 339.748L844.525 339.636C844.32 339.412 844.086 339.179 843.825 338.936V337.76C843.825 336.808 843.526 336.071 842.929 335.548C842.332 335.025 841.482 334.764 840.381 334.764C838.421 334.764 837.021 335.539 836.181 337.088C835.882 336.939 835.63 336.743 835.425 336.5C835.238 336.239 835.145 335.977 835.145 335.716C835.145 335.212 835.397 334.736 835.901 334.288C836.405 333.821 837.068 333.448 837.889 333.168C838.729 332.888 839.606 332.748 840.521 332.748C842.294 332.748 843.685 333.187 844.693 334.064C845.72 334.941 846.233 336.155 846.233 337.704V345.376C846.233 346.029 846.046 346.505 845.673 346.804C845.3 347.103 844.712 347.252 843.909 347.252V345.936C844.301 345.525 844.516 345.283 844.553 345.208L844.441 345.096C843.228 346.533 841.66 347.252 839.737 347.252ZM840.157 345.32C841.314 345.32 842.22 345.077 842.873 344.592C843.545 344.107 843.881 343.435 843.881 342.576C843.881 341.717 843.554 341.036 842.901 340.532C842.248 340.028 841.352 339.776 840.213 339.776C839.149 339.776 838.309 340.028 837.693 340.532C837.096 341.017 836.797 341.699 836.797 342.576C836.797 343.453 837.086 344.135 837.665 344.62C838.262 345.087 839.093 345.32 840.157 345.32ZM855.143 347.252C853.537 347.252 852.231 346.813 851.223 345.936C850.233 345.04 849.739 343.855 849.739 342.38V337.592C849.739 336.64 849.972 335.8 850.439 335.072C850.905 334.325 851.549 333.756 852.371 333.364C853.211 332.953 854.172 332.748 855.255 332.748C856.132 332.748 856.944 332.935 857.691 333.308C858.437 333.663 859.091 334.139 859.651 334.736L859.735 334.596C859.604 334.409 859.408 334.204 859.147 333.98V329.052C859.147 328.436 859.352 327.969 859.763 327.652C860.173 327.316 860.789 327.148 861.611 327.148V345.264C861.611 345.88 861.424 346.365 861.051 346.72C860.696 347.075 860.117 347.252 859.315 347.252V345.684C859.576 345.348 859.753 345.105 859.847 344.956L859.763 344.844C859.165 345.591 858.503 346.179 857.775 346.608C857.047 347.037 856.169 347.252 855.143 347.252ZM855.675 345.096C856.664 345.096 857.495 344.844 858.167 344.34C858.839 343.817 859.175 343.173 859.175 342.408V337.564C859.175 336.817 858.857 336.192 858.223 335.688C857.588 335.165 856.729 334.904 855.647 334.904C854.545 334.904 853.687 335.156 853.071 335.66C852.473 336.145 852.175 336.827 852.175 337.704V342.268C852.175 343.183 852.473 343.883 853.071 344.368C853.687 344.853 854.555 345.096 855.675 345.096ZM871.151 347.252C870.012 347.252 868.995 347.037 868.099 346.608C867.203 346.16 866.503 345.553 865.999 344.788C865.495 344.004 865.243 343.127 865.243 342.156V338.012C865.243 337.023 865.504 336.127 866.027 335.324C866.568 334.521 867.287 333.896 868.183 333.448C869.097 332.981 870.087 332.748 871.151 332.748C872.215 332.748 873.185 332.972 874.063 333.42C874.959 333.868 875.659 334.484 876.163 335.268C876.685 336.052 876.947 336.939 876.947 337.928V339.72C876.947 340.019 876.835 340.271 876.611 340.476C876.387 340.681 876.116 340.784 875.799 340.784H867.623V342.044C867.623 342.996 867.921 343.761 868.519 344.34C869.135 344.919 870.012 345.208 871.151 345.208C872.289 345.208 873.157 344.956 873.755 344.452C874.352 343.948 874.651 343.267 874.651 342.408C875.211 342.371 875.677 342.483 876.051 342.744C876.443 342.987 876.639 343.351 876.639 343.836C876.639 344.433 876.377 344.993 875.855 345.516C875.351 346.039 874.679 346.459 873.839 346.776C872.999 347.093 872.103 347.252 871.151 347.252ZM874.679 338.88V337.928C874.679 336.995 874.352 336.239 873.699 335.66C873.064 335.063 872.215 334.764 871.151 334.764C870.087 334.764 869.228 335.063 868.575 335.66C867.94 336.239 867.623 336.995 867.623 337.928V338.88H874.679Z" fill="white"/>
</svg>
