<svg width="896" height="398" viewBox="0 0 896 398" fill="none" xmlns="http://www.w3.org/2000/svg">
<path d="M1.16599 294.233C1.16599 294.233 1.14272 293.78 1.271 293.273C0.911606 290.618 0.423942 288.47 0 285.953C0.647773 275.522 1.23182 265.46 1.81586 255.398C7.32436 221.701 23.6049 194.592 51.3809 174.566C54.365 172.415 56.7131 170.139 56.6438 165.545C57.3463 159.346 57.6308 153.714 57.9152 148.082C57.9152 148.082 57.9044 148.169 58.3611 148.205C73.5202 148.276 88.2226 148.341 102.925 148.297C104.312 148.292 105.697 147.595 107.049 146.863C104.829 145.69 102.643 144.873 100.457 144.056C87.6759 139.145 76.629 124.586 84.2137 109.471C84.7274 108.385 84.9754 107.874 85.2234 107.364C85.5226 107.034 85.8218 106.703 86.391 105.935C86.8451 105.104 87.0292 104.709 87.2133 104.315C87.2133 104.315 87.1237 104.372 87.4341 104.244C88.9563 102.569 90.1681 101.021 91.3799 99.4726C91.3799 99.4726 91.2883 99.3361 91.5764 99.3217C92.843 98.6956 93.8215 98.0837 95.1891 97.2286C94.0295 103.82 92.0255 109.807 96.0478 115.447C96.0478 115.447 96.0694 115.371 96.0658 115.694C96.4083 116.159 96.7543 116.301 97.1003 116.442C97.1003 116.442 97.1037 116.367 96.9987 116.742C97.2939 117.232 97.6942 117.348 98.0944 117.464C98.0944 117.464 98.0106 117.32 97.7726 117.685C98.0341 118.54 98.5337 119.03 99.0333 119.52C99.0333 119.52 99.1351 119.438 99.1436 119.677C99.4586 120.154 99.7651 120.392 100.072 120.629C100.115 120.942 100.281 121.164 100.988 121.607C103.608 123.166 105.809 124.413 108.911 126.171C107.576 122.652 106.771 120.53 105.966 118.408C103.323 106.105 107.354 95.0641 112.484 84.2526C114.106 80.8353 115.917 77.5077 118.055 73.3286C122.137 91.4765 126.016 108.722 129.98 126.348C138.137 124.097 143.62 119.35 148.096 112.437C148.294 111.903 148.397 111.44 148.397 111.44C148.397 111.44 148.299 111.384 148.577 111.222C149.379 108.11 149.835 105.144 150.486 102.221C150.619 101.621 151.484 101.184 152.012 100.672C152.012 100.672 152.116 100.485 152.013 100.745C152.32 101.441 152.73 101.877 153.14 102.314C153.14 102.314 153.129 102.343 153.293 102.578C154.015 103.32 154.573 103.827 155.132 104.335C155.132 104.335 155.126 104.338 155.242 104.626C156.133 105.82 156.908 106.726 157.682 107.633C157.682 107.633 157.853 107.633 157.808 107.958C161.529 117.443 159.929 126.038 155.03 134.287C155.03 134.287 155.102 134.307 154.819 134.468C152.388 136.827 150.239 139.025 147.811 141.286C147.072 141.682 146.613 142.013 146.154 142.345C146.154 142.345 146.132 142.331 145.871 142.411C145.425 142.773 145.24 143.054 145.055 143.336C145.055 143.336 145.164 143.284 144.796 143.278C144.292 143.617 144.156 143.964 144.02 144.31C143.956 144.127 143.892 143.943 143.258 143.89C141.191 144.502 139.694 144.984 137.878 145.544C137.376 146.206 137.193 146.789 137.092 147.651C138.805 148.069 140.436 148.326 142.067 148.33C154.051 148.364 166.037 148.487 178.017 148.274C182.469 148.195 184.514 149.557 184.182 154.249C183.9 158.223 183.963 162.244 184.218 166.223C184.309 167.632 185.417 168.976 186.06 170.349C199.76 178.867 211.508 189.495 220.812 202.717C233.528 220.786 240.822 240.893 243.14 262.83C249.366 321.754 211.056 373.233 160.977 390.731C148.595 393.112 136.965 396.215 125.177 397.038C106.016 398.375 87.7059 393.63 70.2066 385.829C64.3942 382.409 58.5818 378.989 52.2591 375.247C51.2561 374.657 50.7634 374.387 50.2706 374.118C50.2706 374.118 50.2381 374.195 50.1066 373.925C48.4043 372.479 46.8335 371.302 45.2627 370.125C45.2627 370.125 45.1503 370.219 45.126 369.997C44.7975 369.554 44.4931 369.333 44.1888 369.112C43.6776 368.586 43.1665 368.06 42.2299 367.179C41.2719 366.588 40.7395 366.35 40.2071 366.113C40.2071 366.113 40.1876 366.247 40.2295 365.941C39.914 365.471 39.5566 365.307 39.1992 365.143C39.1992 365.143 39.2372 365.264 39.2138 364.91C36.6462 362.035 34.1018 359.514 31.5574 356.992C31.5574 356.992 31.3597 357.025 31.3984 356.806C31.0228 356.133 30.6085 355.679 30.1943 355.225C30.1943 355.225 30.1538 355.302 30.0982 355.049C29.7632 354.539 29.4838 354.281 29.2044 354.024C29.2089 353.762 29.1118 353.546 28.59 353.021C27.5637 351.874 26.8605 351.082 26.1573 350.289C26.1573 350.289 26.1274 350.335 26.0633 350.077C25.7132 349.62 25.4272 349.421 25.1413 349.222C25.1413 349.222 25.2139 349.319 25.1636 348.985C24.4678 347.852 23.8223 347.052 23.1768 346.253C23.1768 346.253 23.1504 346.316 23.098 346.055C22.7475 345.604 22.4495 345.414 22.1516 345.224C22.1516 345.224 22.2037 345.351 22.1939 345.024C21.8564 344.526 21.5288 344.354 21.2012 344.183C21.2012 344.183 21.2654 344.312 21.3468 343.955C21.0409 343.113 20.6535 342.628 20.2662 342.144C20.2662 342.144 20.2152 342.253 20.1991 341.976C19.8559 341.526 19.5289 341.353 19.2019 341.181C19.2019 341.181 19.3432 341.299 19.3616 340.878C17.9936 338.365 16.6072 336.273 15.2209 334.181C15.2209 334.181 15.2065 334.29 15.1957 333.924C11.9372 325.635 8.47353 317.793 5.521 309.762C3.67165 304.732 2.59136 299.419 1.16599 294.233ZM214.972 326.306C215.122 325.681 215.272 325.056 215.346 324.512C215.346 324.512 215.436 324.577 216.067 324.335C217.141 321.684 218.214 319.032 219.236 316.435C219.236 316.435 219.306 316.461 219.986 316.211C220.434 314.603 220.882 312.996 221.248 311.4C221.248 311.4 221.3 311.463 221.979 311.219C223.016 307.266 224.052 303.312 225.136 298.905C225.136 298.905 225.165 298.449 225.837 298.076C226.783 293.011 227.728 287.946 228.725 282.608C225.693 282.42 223.895 282.309 221.416 281.766C217.33 281.912 213.245 282.058 208.477 282.327C208.019 282.286 207.56 282.246 206.408 281.767C190.93 281.658 175.453 281.54 159.975 281.473C159.37 281.47 158.764 281.957 157.294 282.341C155.325 282.341 153.357 282.341 151.081 282.341C149.214 289.724 147.318 296.872 145.609 304.063C143.372 313.471 141.281 322.913 138.917 333.146C140.442 334.226 141.841 335.958 143.513 336.283C157.5 339 171.547 341.402 185.553 344.025C190.533 344.958 196.293 348.347 200.166 346.794C204.425 345.087 206.953 339.004 210.162 334.773C210.951 333.732 211.459 332.479 212.488 330.906C212.728 330.396 212.967 329.886 213.139 329.361C213.139 329.361 213.17 329.422 213.659 328.924C213.882 328.075 214.106 327.226 214.248 326.428C214.248 326.428 214.308 326.504 214.972 326.306ZM165.65 372.425C165.65 372.425 166.091 372.225 166.612 372.203C167.2 371.843 167.789 371.483 169.083 370.89C172.145 369.068 175.207 367.246 178.188 365.411C178.188 365.411 178.205 365.491 178.805 365.308C179.627 364.681 180.448 364.053 181.187 363.407C181.187 363.407 181.213 363.488 181.848 363.268C183.479 362.056 185.11 360.845 186.742 359.633C186.647 359.091 186.553 358.549 186.458 358.007C175.353 355.82 164.249 353.634 152.494 351.268C152.046 351.277 151.599 351.286 150.268 351.129C147.842 350.897 145.371 350.881 142.997 350.392C135.76 348.901 134.596 349.554 132.735 356.665C131.81 360.198 130.793 363.707 129.907 367.249C128.758 371.843 127.699 376.46 126.59 381.114C134.611 382.352 149.513 379.536 158.138 375.416C158.138 375.416 158.162 375.511 158.888 375.429C161.012 374.424 163.135 373.42 165.164 372.411C165.164 372.411 165.173 372.506 165.65 372.425ZM171.954 176.279C172.31 174.652 172.666 173.024 173.178 170.49C173.125 167.429 173.072 164.368 172.636 160.54C138.813 160.522 104.99 160.504 70.3855 160.833C70.3855 165.901 70.3855 170.969 70.3855 176.243C72.5109 176.243 74.2993 176.243 76.7715 176.373C77.2311 176.325 77.6908 176.277 79.0314 176.309C81.3906 176.282 83.7497 176.254 86.8631 176.37C87.6261 176.321 88.389 176.272 90.0821 176.32C100.758 176.292 111.434 176.264 122.864 176.379C123.625 176.332 124.387 176.285 125.938 176.335C126.996 176.302 128.053 176.27 129.915 176.381C131 176.331 132.084 176.282 133.806 176.325C134.233 176.294 134.66 176.263 135.77 176.369C136.23 176.323 136.69 176.278 138.042 176.33C140.731 176.298 143.421 176.266 146.786 176.369C147.241 176.323 147.696 176.278 149.07 176.326C153.083 176.292 157.095 176.258 161.94 176.375C163.344 176.326 164.747 176.278 166.986 176.316C168.38 176.269 169.774 176.222 171.954 176.279ZM15.4865 282.601C13.5808 289.266 15.3162 295.403 18.3364 301.643C18.3364 301.643 18.2443 301.927 18.2291 302.722C18.7217 303.578 19.2144 304.434 20.0057 305.903C25.7902 323.989 35.3232 339.776 49.1188 352.871C50.3364 354.027 52.8863 355.283 54.0304 354.763C60.4946 351.822 66.7184 348.353 73.2933 344.924C71.6691 342.649 70.1062 340.527 68.6124 338.358C58.9271 324.29 50.6564 309.592 48.6748 291.67C49.9433 282.839 48.7041 281.334 40.1543 281.331C34.8669 281.328 29.5758 281.213 24.2935 281.378C21.5665 281.463 18.855 282.049 16.1366 282.345C16.1366 282.345 16.1939 282.371 15.4865 282.601ZM94.1222 338.414C94.1222 338.414 94.1307 338.528 94.9799 338.487C100.707 337.418 106.434 336.35 112.374 335.241C107.871 318.311 103.464 302.177 99.3654 285.964C98.5536 282.753 97.1176 281.852 93.4186 282.339C92.6471 282.388 91.8756 282.438 90.1734 282.405C80.5938 282.405 71.0143 282.405 61.2976 282.405C61.2976 284.337 61.2976 285.803 61.2265 288.066C64.7421 307.393 73.0798 324.425 86.1817 340.074C88.8666 339.519 91.5515 338.964 94.1222 338.414ZM155.438 190.816C154.632 190.658 153.827 190.365 153.022 190.364C131.982 190.336 110.942 190.322 89.9016 190.377C88.6486 190.38 87.3972 190.975 85.5191 191.727C86.0998 194.912 86.6805 198.097 87.2636 202.063C89.3539 210.167 91.4442 218.271 93.7237 227.216C97.2254 241.576 100.727 255.936 104.237 271.079C110.152 296.649 116.58 322.08 124.47 347.265C125.885 345.385 126.716 343.605 127.1 341.733C131.699 319.28 136.208 296.809 140.79 274.353C146.168 247.994 151.596 221.646 157.206 194.684C156.843 193.551 156.479 192.418 155.438 190.816ZM99.4135 351.309C95.8902 351.89 97.4432 353.437 98.7763 354.848C105.151 361.599 111.534 368.342 117.964 375.04C118.54 375.641 119.471 375.901 120.237 376.319C120.706 376.091 121.176 375.862 121.645 375.634C119.526 368.701 117.406 361.768 115.54 353.909C115.406 349.779 113.244 348.392 109.344 349.289C106.277 349.994 103.199 350.652 99.4135 351.309ZM91.2868 254.659C91.1831 254.244 91.0794 253.828 90.9663 252.638C87.4978 239.723 84.0293 226.808 80.2509 212.739C68.0847 228.389 61.802 244.948 60.1675 264.286C60.7811 265.319 61.3797 267.243 62.0106 267.254C72.895 267.438 83.7833 267.386 94.9739 267.386C93.9057 263.714 92.9835 260.544 92.1215 256.796C91.8708 256.296 91.62 255.796 91.2868 254.659ZM19.0678 247.144C17.8965 253.731 16.7252 260.319 15.5038 267.189C26.4901 267.189 36.228 267.189 45.9081 267.189C47.2366 259.423 48.5227 251.904 50.106 243.653C53.3459 231.131 58.939 219.702 66.2293 209.073C68.1065 206.337 70.3566 203.836 72.0483 200.997C74.7918 196.392 72.0732 191.87 66.9107 191.362C64.3882 191.114 61.9812 189.692 58.2697 188.349C39.5843 202.467 25.3649 221.624 19.0678 247.144ZM228.103 263.572C223.965 231.243 209.487 205.085 182.514 185.992C181.136 188.212 180.123 189.843 178.246 191.458C172.81 190.467 171.044 193.097 169.971 198.23C166.464 214.991 162.339 231.622 158.142 249.052C156.862 254.829 155.582 260.605 154.591 267.199C158.386 267.252 162.18 267.348 165.975 267.352C185.363 267.373 204.75 267.383 224.138 267.358C226.074 267.355 228.945 268.303 228.103 263.572ZM81.5536 357.134C75.6018 359.387 69.6501 361.639 62.7622 364.246C76.7577 373.147 90.5937 378.69 106.83 381.248C103.201 377.486 100.334 374.37 97.3109 371.414C92.3763 366.589 87.3396 361.868 81.5536 357.134Z" fill="#F3842A"/>
<path d="M113.102 8.4431C113.115 8.75795 113.238 9.02063 113.8 9.61188C114.773 10.8166 115.417 11.6405 116.062 12.4644C116.062 12.4644 116.095 12.377 116.133 12.6454C116.487 13.0825 116.801 13.2512 117.116 13.4199C117.116 13.4199 117.003 13.3059 116.992 13.7363C123.921 27.2381 124.858 40.605 118.956 54.3084C118.956 54.3084 119.065 54.311 118.811 54.4429C118.359 55.1606 118.161 55.7464 117.963 56.3323C117.963 56.3323 118.078 56.2772 117.77 56.3894C117.298 57.1019 117.134 57.7022 116.971 58.3025C116.971 58.3025 117.052 58.1396 116.687 58.2157C115.866 58.9576 115.409 59.6235 114.952 60.2893C103.508 72.7208 91.9792 85.0759 80.6552 97.616C75.0384 103.836 70.6354 110.833 69.4307 119.389C68.5364 125.741 70.0896 131.554 73.8298 137.48C75.395 139.679 76.5759 141.341 77.7567 143.003C77.5129 143.412 77.2691 143.82 77.0253 144.229C74.0675 142.917 71.1097 141.605 68.1519 140.292C68.1519 140.292 68.142 140.346 67.9461 140.085C66.255 138.924 64.7599 138.024 63.2647 137.124C63.2647 137.124 63.2285 137.203 63.105 136.927C62.3826 136.48 61.7837 136.309 61.1848 136.138C61.1848 136.138 61.2425 136.264 61.296 135.898C60.6397 135.063 59.93 134.595 59.2203 134.126C59.2203 134.126 59.1481 134.236 59.1975 133.947C58.8841 133.518 58.5212 133.379 58.1584 133.24C58.1584 133.24 58.3991 133.307 58.3434 132.894C57.5846 131.737 56.8815 130.992 56.1785 130.248C56.1785 130.248 56.149 130.313 56.0648 130.005C55.0731 128.517 54.1656 127.337 53.2581 126.158C53.2581 126.158 53.2342 126.274 53.2173 125.9C52.0309 121.596 49.8991 117.662 49.914 113.736C49.9372 107.612 51.4163 101.494 52.2785 95.3736C52.2785 95.3736 52.2152 95.4561 52.5739 95.3634C53.0808 94.6514 53.229 94.0322 53.3771 93.413C53.3771 93.413 53.3093 93.5639 53.665 93.4939C54.4218 92.7434 54.823 92.063 55.2241 91.3825C55.2241 91.3825 55.1546 91.3681 55.409 91.2033C56.2101 90.1555 56.7568 89.2725 57.3035 88.3895C57.6341 88.3257 57.8762 88.144 58.2678 87.4963C58.7597 86.9704 58.9133 86.7288 58.9661 86.4232C58.9661 86.4232 59.203 86.2574 59.5071 85.9246C61.6022 83.8506 63.3933 82.1094 65.1844 80.3682C65.1844 80.3682 65.1353 80.3378 65.4427 80.2176C65.9839 79.5576 66.2179 79.0177 66.4519 78.4778C66.4519 78.4778 66.4113 78.7545 66.8366 78.7365C67.9711 78.011 68.6803 77.3036 69.3895 76.5961C69.3895 76.5961 69.3418 76.4241 69.5896 76.4595C69.9803 76.1245 70.1233 75.7542 70.2662 75.3838C70.2662 75.3838 70.2132 75.6555 70.6588 75.5924C72.5462 74.24 73.988 72.9506 75.4297 71.6612C75.4297 71.6612 75.3923 71.4465 75.6267 71.4798C75.9948 71.1384 76.1286 70.7635 76.2624 70.3887C76.2624 70.3887 76.2364 70.6819 76.6984 70.6152C82.2735 65.2956 87.3866 60.0427 92.4997 54.7898C92.4997 54.7898 92.4999 54.5531 92.7147 54.5572C93.3996 53.8397 93.8697 53.1181 94.3397 52.3965C94.3397 52.3965 94.2259 52.3101 94.4606 52.3148C94.8758 51.9959 95.0562 51.6722 95.2366 51.3486C95.2366 51.3486 95.1606 51.37 95.4226 51.2194C96.201 50.174 96.7175 49.2791 97.2338 48.3842C97.2338 48.3842 97.1637 48.3727 97.4353 48.1888C107.131 33.3172 108.532 17.4754 103.624 0C105.771 1.58473 106.953 2.45674 108.134 3.32877C108.134 3.32877 108.13 3.34039 108.304 3.5947C109.018 4.06418 109.557 4.27937 110.096 4.49457C110.096 4.49457 109.89 4.4062 109.956 4.80647C111.048 6.28552 112.075 7.3643 113.102 8.4431Z" fill="#F3842A"/>
<path d="M174.194 59.3303C170.202 67.548 171.544 75.1058 177.27 81.9367C180.775 86.118 184.579 90.0487 188.668 94.5494C189.93 95.8919 190.771 96.777 191.612 97.662C191.612 97.662 191.562 97.7922 191.703 98.1252C192.552 99.4822 193.259 100.506 193.967 101.53C193.967 101.53 193.917 101.473 193.985 101.881C197.703 109.851 196.812 117.33 193.64 124.767C193.64 124.767 193.501 124.931 193.303 125.168C190.046 128.664 186.987 131.924 183.929 135.183C183.929 135.183 184.031 135.25 183.762 135.27C183.325 135.621 183.157 135.951 182.988 136.28C182.988 136.28 183.097 136.117 182.653 136.117C179.968 137.194 177.818 138.595 175.461 139.26C172.862 139.994 170.072 140.054 167.366 140.407C167.671 140.372 167.905 140.224 168.413 139.589C169.587 137.942 170.416 136.67 171.244 135.398C171.244 135.398 171.172 135.377 171.443 135.187C171.971 134.165 172.228 133.334 172.485 132.502C172.485 132.502 172.523 132.555 172.845 132.381C176.744 124.399 177.195 116.702 172.356 109.192C172.356 109.192 172.501 109.228 172.506 108.798C170.127 104.943 167.743 101.518 165.359 98.0937C165.359 98.0937 165.27 98.1709 165.28 97.8922C164.94 97.4536 164.59 97.2936 164.239 97.1336C164.239 97.1336 164.538 97.1351 164.429 96.6813C156.563 86.6159 154.865 76.3953 161.22 65.3657C161.527 65.0375 161.835 64.7093 162.47 63.9496C164.6 61.8057 166.404 60.0933 168.207 58.3809C168.207 58.3809 168.149 58.3428 168.481 58.2586C171.225 56.9575 173.638 55.7406 176.051 54.5237C176.051 54.5237 176.042 54.41 176.029 54.7496C175.409 56.503 174.802 57.9167 174.194 59.3303Z" fill="#F3842A"/>
<path d="M153.242 49.2962C153.202 49.7606 153.162 50.225 153.117 51.4359C152.034 56.5464 150.955 60.9104 149.876 65.2744C149.876 65.2744 149.979 65.326 149.71 65.473C147.907 69.6496 145.948 73.5757 144.933 77.7323C143.252 84.6245 143.093 91.5276 147.823 97.5958C147.823 97.5958 147.805 97.5154 147.767 97.8356C147.843 98.5423 147.957 98.9289 148.07 99.3155C137.782 94.8655 129.174 88.0807 126.052 77.2278C124.555 72.0266 126.366 65.5264 127.844 59.9222C129.132 55.041 132.343 50.7022 134.194 45.9261C136.909 38.9189 139.17 31.7355 141.718 24.3539C143.285 26.4711 145.374 29.2936 147.833 32.653C149.483 35.6172 150.764 38.0443 152.044 40.4715C152.044 40.4715 152.067 40.3552 152.036 40.7633C152.418 43.8796 152.83 46.5879 153.242 49.2962Z" fill="#F3842A"/>
<path d="M342.13 319.139C330.93 319.139 321.197 317.539 312.93 314.339C304.797 311.139 298.597 306.873 294.33 301.539C290.064 296.206 287.93 290.473 287.93 284.339C287.93 279.273 289.264 275.406 291.93 272.739C294.597 269.939 298.664 268.539 304.13 268.539C304.13 279.873 307.53 288.539 314.33 294.539C321.13 300.406 330.664 303.339 342.93 303.339C354.664 303.339 363.664 301.406 369.93 297.539C376.197 293.539 379.33 287.673 379.33 279.939C379.33 275.273 378.13 271.473 375.73 268.539C373.464 265.473 369.53 262.873 363.93 260.739C358.464 258.473 350.53 256.206 340.13 253.939C327.864 251.273 318.13 248.206 310.93 244.739C303.73 241.139 298.464 236.806 295.13 231.739C291.797 226.673 290.13 220.406 290.13 212.939C290.13 205.473 292.197 198.939 296.33 193.339C300.597 187.606 306.597 183.206 314.33 180.139C322.064 177.072 331.064 175.539 341.33 175.539C351.064 175.539 359.73 176.939 367.33 179.739C375.064 182.406 381.064 186.272 385.33 191.339C389.73 196.272 391.93 201.872 391.93 208.139C391.93 212.006 390.664 215.073 388.13 217.339C385.73 219.473 381.93 220.539 376.73 220.539C375.264 210.406 371.664 203.006 365.93 198.339C360.33 193.672 352.13 191.339 341.33 191.339C330.93 191.339 322.93 193.206 317.33 196.939C311.73 200.539 308.93 205.672 308.93 212.339C308.93 217.006 309.93 220.873 311.93 223.939C314.064 226.873 317.597 229.406 322.53 231.539C327.597 233.673 334.664 235.739 343.73 237.739C357.33 240.673 367.997 243.939 375.73 247.539C383.597 251.139 389.264 255.539 392.73 260.739C396.197 265.939 397.93 272.339 397.93 279.939C397.93 292.073 392.864 301.673 382.73 308.739C372.597 315.673 359.064 319.139 342.13 319.139ZM424.841 191.139C424.841 186.206 426.441 182.406 429.641 179.739C432.975 176.939 437.641 175.539 443.641 175.539V303.539C443.641 308.473 441.975 312.339 438.641 315.139C435.441 317.806 430.841 319.139 424.841 319.139V191.139ZM531.524 319.139C520.324 319.139 510.324 317.073 501.524 312.939C492.724 308.673 485.857 302.806 480.924 295.339C476.124 287.739 473.724 279.139 473.724 269.539V224.739C473.724 215.139 476.124 206.606 480.924 199.139C485.857 191.673 492.657 185.873 501.324 181.739C509.991 177.606 519.924 175.539 531.124 175.539C542.324 175.539 552.257 177.339 560.924 180.939C569.591 184.406 576.324 189.273 581.124 195.539C586.057 201.806 588.524 209.006 588.524 217.139C588.524 221.139 587.191 224.273 584.524 226.539C581.857 228.806 578.324 229.939 573.924 229.939C572.991 229.939 571.591 229.806 569.724 229.539C569.991 227.939 570.124 225.406 570.124 221.939C570.124 216.206 568.457 211.072 565.124 206.539C561.924 202.006 557.324 198.473 551.324 195.939C545.457 193.406 538.724 192.139 531.124 192.139C523.657 192.139 516.991 193.539 511.124 196.339C505.257 199.006 500.657 202.872 497.324 207.939C494.124 212.872 492.524 218.472 492.524 224.739V269.539C492.524 275.939 494.124 281.673 497.324 286.739C500.657 291.673 505.257 295.539 511.124 298.339C517.124 301.139 523.924 302.539 531.524 302.539C539.257 302.539 546.124 301.273 552.124 298.739C558.124 296.206 562.791 292.739 566.124 288.339C569.457 283.806 571.124 278.606 571.124 272.739C571.124 270.606 570.991 268.073 570.724 265.139C572.591 264.873 573.924 264.739 574.724 264.739C579.124 264.739 582.657 266.006 585.324 268.539C588.124 271.073 589.524 274.473 589.524 278.739C589.524 286.606 587.057 293.606 582.124 299.739C577.191 305.873 570.324 310.673 561.524 314.139C552.857 317.473 542.857 319.139 531.524 319.139ZM665.043 319.139C653.976 319.139 644.043 317.006 635.243 312.739C626.576 308.339 619.776 302.339 614.843 294.739C609.909 287.006 607.443 278.473 607.443 269.139V225.139C607.443 215.806 609.909 207.406 614.843 199.939C619.776 192.339 626.576 186.406 635.243 182.139C644.043 177.739 653.976 175.539 665.043 175.539C676.243 175.539 686.176 177.739 694.843 182.139C703.643 186.406 710.509 192.339 715.443 199.939C720.376 207.406 722.843 215.806 722.843 225.139V269.139C722.843 278.473 720.376 287.006 715.443 294.739C710.509 302.339 703.643 308.339 694.843 312.739C686.043 317.006 676.109 319.139 665.043 319.139ZM665.043 302.739C677.443 302.739 687.109 299.673 694.043 293.539C700.976 287.406 704.443 279.206 704.443 268.939V225.539C704.443 215.273 700.976 207.139 694.043 201.139C687.109 195.006 677.443 191.939 665.043 191.939C652.776 191.939 643.176 195.006 636.243 201.139C629.309 207.139 625.843 215.273 625.843 225.539V268.939C625.843 279.206 629.309 287.406 636.243 293.539C643.176 299.673 652.776 302.739 665.043 302.739ZM745.841 191.139C745.841 186.206 747.508 182.406 750.841 179.739C754.175 176.939 758.775 175.539 764.641 175.539L813.041 291.739L809.241 301.139L810.641 301.739L861.841 175.539C867.708 175.539 872.308 176.939 875.641 179.739C879.108 182.539 880.841 186.406 880.841 191.339V319.139C868.441 319.139 862.241 314.006 862.241 303.739V219.539L867.441 205.739L865.841 205.339L821.241 313.739C820.575 315.339 819.508 316.606 818.041 317.539C816.575 318.606 815.041 319.139 813.441 319.139C811.708 319.139 810.108 318.673 808.641 317.739C807.175 316.806 806.108 315.473 805.441 313.739L760.841 205.139L759.241 205.739L764.441 219.339V303.739C764.441 308.806 762.841 312.673 759.641 315.339C756.575 317.873 751.975 319.139 745.841 319.139V191.139Z" fill="#323232"/>
<path d="M305.09 346.591C303.522 346.591 302.16 346.367 301.002 345.919C299.864 345.471 298.996 344.874 298.398 344.127C297.801 343.381 297.502 342.578 297.502 341.719C297.502 341.01 297.689 340.469 298.062 340.095C298.436 339.703 299.005 339.507 299.77 339.507C299.77 341.094 300.246 342.307 301.198 343.147C302.15 343.969 303.485 344.379 305.202 344.379C306.845 344.379 308.105 344.109 308.982 343.567C309.86 343.007 310.298 342.186 310.298 341.103C310.298 340.45 310.13 339.918 309.794 339.507C309.477 339.078 308.926 338.714 308.142 338.415C307.377 338.098 306.266 337.781 304.81 337.463C303.093 337.09 301.73 336.661 300.722 336.175C299.714 335.671 298.977 335.065 298.51 334.355C298.044 333.646 297.81 332.769 297.81 331.723C297.81 330.678 298.1 329.763 298.678 328.979C299.276 328.177 300.116 327.561 301.198 327.131C302.281 326.702 303.541 326.487 304.978 326.487C306.341 326.487 307.554 326.683 308.618 327.075C309.701 327.449 310.541 327.99 311.138 328.699C311.754 329.39 312.062 330.174 312.062 331.051C312.062 331.593 311.885 332.022 311.53 332.339C311.194 332.638 310.662 332.787 309.934 332.787C309.729 331.369 309.225 330.333 308.422 329.679C307.638 329.026 306.49 328.699 304.978 328.699C303.522 328.699 302.402 328.961 301.618 329.483C300.834 329.987 300.442 330.706 300.442 331.639C300.442 332.293 300.582 332.834 300.862 333.263C301.161 333.674 301.656 334.029 302.346 334.327C303.056 334.626 304.045 334.915 305.314 335.195C307.218 335.606 308.712 336.063 309.794 336.567C310.896 337.071 311.689 337.687 312.174 338.415C312.66 339.143 312.902 340.039 312.902 341.103C312.902 342.802 312.193 344.146 310.774 345.135C309.356 346.106 307.461 346.591 305.09 346.591ZM317.958 329.987C317.435 329.987 316.997 329.819 316.642 329.483C316.287 329.147 316.11 328.727 316.11 328.223C316.11 327.719 316.287 327.309 316.642 326.991C316.997 326.655 317.435 326.487 317.958 326.487C318.462 326.487 318.891 326.655 319.246 326.991C319.601 327.309 319.778 327.719 319.778 328.223C319.778 328.727 319.601 329.147 319.246 329.483C318.891 329.819 318.462 329.987 317.958 329.987ZM316.726 333.879C316.726 333.263 316.922 332.815 317.314 332.535C317.725 332.237 318.341 332.087 319.162 332.087V344.799C319.162 345.415 318.957 345.873 318.546 346.171C318.154 346.451 317.547 346.591 316.726 346.591V333.879ZM328.779 346.591C327.827 346.591 326.931 346.451 326.091 346.171C325.251 345.873 324.57 345.453 324.047 344.911C323.543 344.37 323.291 343.735 323.291 343.007C323.291 342.111 323.833 341.626 324.915 341.551C325.102 342.597 325.541 343.371 326.231 343.875C326.941 344.361 327.837 344.603 328.919 344.603C330.002 344.603 330.842 344.445 331.439 344.127C332.037 343.81 332.335 343.325 332.335 342.671C332.335 342.205 332.214 341.831 331.971 341.551C331.729 341.253 331.337 341.001 330.795 340.795C330.273 340.571 329.517 340.357 328.527 340.151C327.295 339.871 326.315 339.573 325.587 339.255C324.859 338.938 324.299 338.518 323.907 337.995C323.534 337.473 323.347 336.782 323.347 335.923C323.347 335.195 323.571 334.542 324.019 333.963C324.467 333.366 325.083 332.909 325.867 332.591C326.67 332.255 327.575 332.087 328.583 332.087C329.517 332.087 330.394 332.218 331.215 332.479C332.055 332.741 332.727 333.114 333.231 333.599C333.754 334.085 334.015 334.645 334.015 335.279C334.015 335.709 333.847 336.054 333.511 336.315C333.175 336.558 332.709 336.698 332.111 336.735C332.055 335.914 331.719 335.27 331.103 334.803C330.506 334.318 329.666 334.075 328.583 334.075C327.687 334.075 326.978 334.243 326.455 334.579C325.933 334.915 325.671 335.363 325.671 335.923C325.671 336.521 325.914 336.969 326.399 337.267C326.903 337.547 327.753 337.818 328.947 338.079C330.907 338.471 332.345 339.013 333.259 339.703C334.193 340.375 334.659 341.337 334.659 342.587C334.659 343.857 334.146 344.846 333.119 345.555C332.093 346.246 330.646 346.591 328.779 346.591ZM342.19 346.591C340.864 346.591 339.875 346.218 339.222 345.471C338.568 344.706 338.242 343.707 338.242 342.475V334.299H335.638C335.638 333.665 335.778 333.179 336.058 332.843C336.338 332.507 336.72 332.339 337.206 332.339H338.27V329.679C338.27 329.063 338.466 328.615 338.858 328.335C339.268 328.037 339.875 327.887 340.678 327.887V332.339H344.402C344.402 333.646 343.814 334.299 342.638 334.299H340.706V342.391C340.706 343.138 340.836 343.67 341.098 343.987C341.378 344.286 341.872 344.435 342.582 344.435C343.235 344.435 343.851 344.267 344.43 343.931C344.672 344.174 344.794 344.501 344.794 344.911C344.794 345.359 344.56 345.751 344.094 346.087C343.627 346.423 342.992 346.591 342.19 346.591ZM353.375 346.591C352.236 346.591 351.219 346.377 350.323 345.947C349.427 345.499 348.727 344.893 348.223 344.127C347.719 343.343 347.467 342.466 347.467 341.495V337.351C347.467 336.362 347.728 335.466 348.251 334.663C348.792 333.861 349.511 333.235 350.407 332.787C351.321 332.321 352.311 332.087 353.375 332.087C354.439 332.087 355.409 332.311 356.287 332.759C357.183 333.207 357.883 333.823 358.387 334.607C358.909 335.391 359.171 336.278 359.171 337.267V339.059C359.171 339.358 359.059 339.61 358.835 339.815C358.611 340.021 358.34 340.123 358.023 340.123H349.847V341.383C349.847 342.335 350.145 343.101 350.743 343.679C351.359 344.258 352.236 344.547 353.375 344.547C354.513 344.547 355.381 344.295 355.979 343.791C356.576 343.287 356.875 342.606 356.875 341.747C357.435 341.71 357.901 341.822 358.275 342.083C358.667 342.326 358.863 342.69 358.863 343.175C358.863 343.773 358.601 344.333 358.079 344.855C357.575 345.378 356.903 345.798 356.063 346.115C355.223 346.433 354.327 346.591 353.375 346.591ZM356.903 338.219V337.267C356.903 336.334 356.576 335.578 355.923 334.999C355.288 334.402 354.439 334.103 353.375 334.103C352.311 334.103 351.452 334.402 350.799 334.999C350.164 335.578 349.847 336.334 349.847 337.267V338.219H356.903ZM362.403 334.159C362.403 332.778 363.177 332.087 364.727 332.087V333.879C364.484 334.141 364.288 334.393 364.139 334.635L364.251 334.747C364.848 333.907 365.483 333.254 366.155 332.787C366.827 332.321 367.601 332.087 368.479 332.087C370.177 332.087 371.344 332.899 371.979 334.523C373.043 332.899 374.461 332.087 376.235 332.087C377.56 332.087 378.577 332.535 379.287 333.431C380.015 334.309 380.379 335.466 380.379 336.903V344.799C380.379 345.415 380.173 345.873 379.763 346.171C379.371 346.451 378.773 346.591 377.971 346.591V337.043C377.971 336.147 377.784 335.447 377.411 334.943C377.037 334.439 376.449 334.187 375.647 334.187C374.807 334.187 374.088 334.477 373.491 335.055C372.893 335.615 372.595 336.371 372.595 337.323V344.799C372.595 345.415 372.399 345.873 372.007 346.171C371.615 346.451 371.017 346.591 370.215 346.591V337.043C370.215 336.147 370.028 335.447 369.655 334.943C369.281 334.439 368.693 334.187 367.891 334.187C367.032 334.187 366.304 334.495 365.707 335.111C365.109 335.727 364.811 336.483 364.811 337.379V344.799C364.811 345.415 364.605 345.873 364.195 346.171C363.803 346.451 363.205 346.591 362.403 346.591V334.159ZM388.68 346.591C387.074 346.591 385.777 346.162 384.788 345.303C383.817 344.445 383.332 343.315 383.332 341.915C383.332 340.497 383.845 339.358 384.872 338.499C385.898 337.622 387.252 337.183 388.932 337.183C390.724 337.183 392.198 337.818 393.356 339.087L393.468 338.975C393.262 338.751 393.029 338.518 392.768 338.275V337.099C392.768 336.147 392.469 335.41 391.872 334.887C391.274 334.365 390.425 334.103 389.324 334.103C387.364 334.103 385.964 334.878 385.124 336.427C384.825 336.278 384.573 336.082 384.368 335.839C384.181 335.578 384.088 335.317 384.088 335.055C384.088 334.551 384.34 334.075 384.844 333.627C385.348 333.161 386.01 332.787 386.832 332.507C387.672 332.227 388.549 332.087 389.464 332.087C391.237 332.087 392.628 332.526 393.636 333.403C394.662 334.281 395.176 335.494 395.176 337.043V344.715C395.176 345.369 394.989 345.845 394.616 346.143C394.242 346.442 393.654 346.591 392.852 346.591V345.275C393.244 344.865 393.458 344.622 393.496 344.547L393.384 344.435C392.17 345.873 390.602 346.591 388.68 346.591ZM389.1 344.659C390.257 344.659 391.162 344.417 391.816 343.931C392.488 343.446 392.824 342.774 392.824 341.915C392.824 341.057 392.497 340.375 391.844 339.871C391.19 339.367 390.294 339.115 389.156 339.115C388.092 339.115 387.252 339.367 386.636 339.871C386.038 340.357 385.74 341.038 385.74 341.915C385.74 342.793 386.029 343.474 386.608 343.959C387.205 344.426 388.036 344.659 389.1 344.659ZM406.74 328.671C406.74 327.981 406.964 327.449 407.412 327.075C407.879 326.683 408.532 326.487 409.372 326.487V344.407C409.372 345.098 409.139 345.639 408.672 346.031C408.224 346.405 407.58 346.591 406.74 346.591V328.671ZM413.864 334.159C413.864 332.778 414.648 332.087 416.216 332.087V333.879C416.048 334.047 415.852 334.299 415.628 334.635L415.74 334.747C416.3 333.963 417.028 333.329 417.924 332.843C418.82 332.339 419.79 332.087 420.836 332.087C422.348 332.087 423.542 332.535 424.42 333.431C425.297 334.327 425.736 335.485 425.736 336.903V344.799C425.736 345.415 425.53 345.873 425.12 346.171C424.728 346.451 424.121 346.591 423.3 346.591V337.155C423.3 336.259 423.048 335.55 422.544 335.027C422.04 334.505 421.274 334.243 420.248 334.243C419.557 334.243 418.904 334.393 418.288 334.691C417.69 334.971 417.205 335.363 416.832 335.867C416.477 336.353 416.3 336.885 416.3 337.463V344.799C416.3 345.415 416.094 345.873 415.684 346.171C415.292 346.451 414.685 346.591 413.864 346.591V334.159ZM434.94 346.591C433.614 346.591 432.625 346.218 431.972 345.471C431.318 344.706 430.992 343.707 430.992 342.475V334.299H428.388C428.388 333.665 428.528 333.179 428.808 332.843C429.088 332.507 429.47 332.339 429.956 332.339H431.02V329.679C431.02 329.063 431.216 328.615 431.608 328.335C432.018 328.037 432.625 327.887 433.428 327.887V332.339H437.152C437.152 333.646 436.564 334.299 435.388 334.299H433.456V342.391C433.456 343.138 433.586 343.67 433.848 343.987C434.128 344.286 434.622 344.435 435.332 344.435C435.985 344.435 436.601 344.267 437.18 343.931C437.422 344.174 437.544 344.501 437.544 344.911C437.544 345.359 437.31 345.751 436.844 346.087C436.377 346.423 435.742 346.591 434.94 346.591ZM446.125 346.591C444.986 346.591 443.969 346.377 443.073 345.947C442.177 345.499 441.477 344.893 440.973 344.127C440.469 343.343 440.217 342.466 440.217 341.495V337.351C440.217 336.362 440.478 335.466 441.001 334.663C441.542 333.861 442.261 333.235 443.157 332.787C444.071 332.321 445.061 332.087 446.125 332.087C447.189 332.087 448.159 332.311 449.037 332.759C449.933 333.207 450.633 333.823 451.137 334.607C451.659 335.391 451.921 336.278 451.921 337.267V339.059C451.921 339.358 451.809 339.61 451.585 339.815C451.361 340.021 451.09 340.123 450.773 340.123H442.597V341.383C442.597 342.335 442.895 343.101 443.493 343.679C444.109 344.258 444.986 344.547 446.125 344.547C447.263 344.547 448.131 344.295 448.729 343.791C449.326 343.287 449.625 342.606 449.625 341.747C450.185 341.71 450.651 341.822 451.025 342.083C451.417 342.326 451.613 342.69 451.613 343.175C451.613 343.773 451.351 344.333 450.829 344.855C450.325 345.378 449.653 345.798 448.813 346.115C447.973 346.433 447.077 346.591 446.125 346.591ZM449.653 338.219V337.267C449.653 336.334 449.326 335.578 448.673 334.999C448.038 334.402 447.189 334.103 446.125 334.103C445.061 334.103 444.202 334.402 443.549 334.999C442.914 335.578 442.597 336.334 442.597 337.267V338.219H449.653ZM460.725 352.191C459.754 352.191 458.849 352.033 458.009 351.715C457.169 351.398 456.506 350.969 456.021 350.427C455.535 349.905 455.293 349.335 455.293 348.719C455.293 348.234 455.451 347.879 455.769 347.655C456.105 347.431 456.553 347.319 457.113 347.319C457.15 348.197 457.486 348.887 458.121 349.391C458.774 349.914 459.642 350.175 460.725 350.175C463.114 350.175 464.309 349.018 464.309 346.703V345.079C464.57 344.855 464.766 344.65 464.897 344.463L464.813 344.323C464.271 344.902 463.59 345.378 462.769 345.751C461.966 346.125 461.154 346.311 460.333 346.311C458.727 346.311 457.411 345.873 456.385 344.995C455.377 344.099 454.873 342.923 454.873 341.467V336.959C454.873 336.007 455.106 335.167 455.573 334.439C456.058 333.693 456.711 333.114 457.533 332.703C458.373 332.293 459.297 332.087 460.305 332.087C462.134 332.087 463.665 332.89 464.897 334.495L465.009 334.383L464.449 333.683C464.449 333.161 464.626 332.769 464.981 332.507C465.354 332.227 465.951 332.087 466.773 332.087V346.451C466.773 347.571 466.511 348.561 465.989 349.419C465.485 350.297 464.775 350.978 463.861 351.463C462.946 351.949 461.901 352.191 460.725 352.191ZM460.781 344.183C461.77 344.183 462.61 343.922 463.301 343.399C463.991 342.858 464.337 342.223 464.337 341.495V336.931C464.337 336.166 463.991 335.522 463.301 334.999C462.629 334.477 461.807 334.215 460.837 334.215C459.717 334.215 458.849 334.467 458.233 334.971C457.617 335.457 457.309 336.157 457.309 337.071V341.355C457.309 342.233 457.607 342.923 458.205 343.427C458.821 343.931 459.679 344.183 460.781 344.183ZM476.76 334.243C475.715 334.243 474.847 334.561 474.156 335.195C473.465 335.811 473.12 336.567 473.12 337.463V344.799C473.12 345.415 472.915 345.873 472.504 346.171C472.112 346.451 471.505 346.591 470.684 346.591V334.159C470.684 332.778 471.468 332.087 473.036 332.087V333.795C472.737 334.113 472.532 334.393 472.42 334.635L472.532 334.747C473.727 332.974 475.22 332.087 477.012 332.087C477.684 332.087 478.197 332.255 478.552 332.591C478.907 332.909 479.084 333.301 479.084 333.767C479.084 334.103 479 334.402 478.832 334.663C478.309 334.383 477.619 334.243 476.76 334.243ZM485.422 346.591C483.817 346.591 482.519 346.162 481.53 345.303C480.559 344.445 480.074 343.315 480.074 341.915C480.074 340.497 480.587 339.358 481.614 338.499C482.641 337.622 483.994 337.183 485.674 337.183C487.466 337.183 488.941 337.818 490.098 339.087L490.21 338.975C490.005 338.751 489.771 338.518 489.51 338.275V337.099C489.51 336.147 489.211 335.41 488.614 334.887C488.017 334.365 487.167 334.103 486.066 334.103C484.106 334.103 482.706 334.878 481.866 336.427C481.567 336.278 481.315 336.082 481.11 335.839C480.923 335.578 480.83 335.317 480.83 335.055C480.83 334.551 481.082 334.075 481.586 333.627C482.09 333.161 482.753 332.787 483.574 332.507C484.414 332.227 485.291 332.087 486.206 332.087C487.979 332.087 489.37 332.526 490.378 333.403C491.405 334.281 491.918 335.494 491.918 337.043V344.715C491.918 345.369 491.731 345.845 491.358 346.143C490.985 346.442 490.397 346.591 489.594 346.591V345.275C489.986 344.865 490.201 344.622 490.238 344.547L490.126 344.435C488.913 345.873 487.345 346.591 485.422 346.591ZM485.842 344.659C486.999 344.659 487.905 344.417 488.558 343.931C489.23 343.446 489.566 342.774 489.566 341.915C489.566 341.057 489.239 340.375 488.586 339.871C487.933 339.367 487.037 339.115 485.898 339.115C484.834 339.115 483.994 339.367 483.378 339.871C482.781 340.357 482.482 341.038 482.482 341.915C482.482 342.793 482.771 343.474 483.35 343.959C483.947 344.426 484.778 344.659 485.842 344.659ZM500.828 346.591C499.222 346.591 497.916 346.153 496.908 345.275C495.918 344.379 495.424 343.194 495.424 341.719V336.931C495.424 335.979 495.657 335.139 496.124 334.411C496.59 333.665 497.234 333.095 498.056 332.703C498.896 332.293 499.857 332.087 500.94 332.087C501.817 332.087 502.629 332.274 503.376 332.647C504.122 333.002 504.776 333.478 505.336 334.075L505.42 333.935C505.289 333.749 505.093 333.543 504.832 333.319V328.391C504.832 327.775 505.037 327.309 505.448 326.991C505.858 326.655 506.474 326.487 507.296 326.487V344.603C507.296 345.219 507.109 345.705 506.736 346.059C506.381 346.414 505.802 346.591 505 346.591V345.023C505.261 344.687 505.438 344.445 505.532 344.295L505.448 344.183C504.85 344.93 504.188 345.518 503.46 345.947C502.732 346.377 501.854 346.591 500.828 346.591ZM501.36 344.435C502.349 344.435 503.18 344.183 503.852 343.679C504.524 343.157 504.86 342.513 504.86 341.747V336.903C504.86 336.157 504.542 335.531 503.908 335.027C503.273 334.505 502.414 334.243 501.332 334.243C500.23 334.243 499.372 334.495 498.756 334.999C498.158 335.485 497.86 336.166 497.86 337.043V341.607C497.86 342.522 498.158 343.222 498.756 343.707C499.372 344.193 500.24 344.435 501.36 344.435ZM516.527 346.591C515.389 346.591 514.353 346.377 513.419 345.947C512.505 345.518 511.786 344.939 511.263 344.211C510.759 343.465 510.507 342.634 510.507 341.719V337.127C510.507 336.194 510.759 335.345 511.263 334.579C511.786 333.814 512.505 333.207 513.419 332.759C514.334 332.311 515.37 332.087 516.527 332.087C517.685 332.087 518.721 332.311 519.635 332.759C520.569 333.207 521.287 333.814 521.791 334.579C522.314 335.345 522.575 336.194 522.575 337.127V341.719C522.575 342.634 522.314 343.465 521.791 344.211C521.269 344.939 520.55 345.518 519.635 345.947C518.721 346.377 517.685 346.591 516.527 346.591ZM516.527 344.491C517.647 344.491 518.534 344.23 519.187 343.707C519.859 343.166 520.195 342.466 520.195 341.607V337.211C520.195 336.315 519.859 335.587 519.187 335.027C518.534 334.467 517.647 334.187 516.527 334.187C515.426 334.187 514.539 334.467 513.867 335.027C513.195 335.587 512.859 336.315 512.859 337.211V341.607C512.859 342.466 513.186 343.166 513.839 343.707C514.511 344.23 515.407 344.491 516.527 344.491ZM538.152 346.591C536.546 346.591 535.24 346.153 534.232 345.275C533.242 344.379 532.748 343.194 532.748 341.719V336.931C532.748 335.979 532.981 335.139 533.448 334.411C533.914 333.665 534.558 333.095 535.38 332.703C536.22 332.293 537.181 332.087 538.264 332.087C539.141 332.087 539.953 332.274 540.7 332.647C541.446 333.002 542.1 333.478 542.66 334.075L542.744 333.935C542.613 333.749 542.417 333.543 542.156 333.319V328.391C542.156 327.775 542.361 327.309 542.772 326.991C543.182 326.655 543.798 326.487 544.62 326.487V344.603C544.62 345.219 544.433 345.705 544.06 346.059C543.705 346.414 543.126 346.591 542.324 346.591V345.023C542.585 344.687 542.762 344.445 542.856 344.295L542.772 344.183C542.174 344.93 541.512 345.518 540.784 345.947C540.056 346.377 539.178 346.591 538.152 346.591ZM538.684 344.435C539.673 344.435 540.504 344.183 541.176 343.679C541.848 343.157 542.184 342.513 542.184 341.747V336.903C542.184 336.157 541.866 335.531 541.232 335.027C540.597 334.505 539.738 334.243 538.656 334.243C537.554 334.243 536.696 334.495 536.08 334.999C535.482 335.485 535.184 336.166 535.184 337.043V341.607C535.184 342.522 535.482 343.222 536.08 343.707C536.696 344.193 537.564 344.435 538.684 344.435ZM554.16 346.591C553.021 346.591 552.004 346.377 551.108 345.947C550.212 345.499 549.512 344.893 549.008 344.127C548.504 343.343 548.252 342.466 548.252 341.495V337.351C548.252 336.362 548.513 335.466 549.036 334.663C549.577 333.861 550.296 333.235 551.192 332.787C552.106 332.321 553.096 332.087 554.16 332.087C555.224 332.087 556.194 332.311 557.072 332.759C557.968 333.207 558.668 333.823 559.172 334.607C559.694 335.391 559.956 336.278 559.956 337.267V339.059C559.956 339.358 559.844 339.61 559.62 339.815C559.396 340.021 559.125 340.123 558.808 340.123H550.632V341.383C550.632 342.335 550.93 343.101 551.528 343.679C552.144 344.258 553.021 344.547 554.16 344.547C555.298 344.547 556.166 344.295 556.764 343.791C557.361 343.287 557.66 342.606 557.66 341.747C558.22 341.71 558.686 341.822 559.06 342.083C559.452 342.326 559.648 342.69 559.648 343.175C559.648 343.773 559.386 344.333 558.864 344.855C558.36 345.378 557.688 345.798 556.848 346.115C556.008 346.433 555.112 346.591 554.16 346.591ZM557.688 338.219V337.267C557.688 336.334 557.361 335.578 556.708 334.999C556.073 334.402 555.224 334.103 554.16 334.103C553.096 334.103 552.237 334.402 551.584 334.999C550.949 335.578 550.632 336.334 550.632 337.267V338.219H557.688ZM578.219 346.591C576.651 346.591 575.251 346.302 574.019 345.723C572.787 345.126 571.825 344.305 571.135 343.259C570.463 342.195 570.127 340.991 570.127 339.647V333.375C570.127 332.031 570.463 330.837 571.135 329.791C571.825 328.746 572.777 327.934 573.991 327.355C575.204 326.777 576.595 326.487 578.163 326.487C579.731 326.487 581.121 326.739 582.335 327.243C583.548 327.729 584.491 328.41 585.163 329.287C585.853 330.165 586.199 331.173 586.199 332.311C586.199 332.871 586.012 333.31 585.639 333.627C585.265 333.945 584.771 334.103 584.155 334.103C584.024 334.103 583.828 334.085 583.567 334.047C583.604 333.823 583.623 333.469 583.623 332.983C583.623 332.181 583.389 331.462 582.923 330.827C582.475 330.193 581.831 329.698 580.991 329.343C580.169 328.989 579.227 328.811 578.163 328.811C577.117 328.811 576.184 329.007 575.363 329.399C574.541 329.773 573.897 330.314 573.431 331.023C572.983 331.714 572.759 332.498 572.759 333.375V339.647C572.759 340.543 572.983 341.346 573.431 342.055C573.897 342.746 574.541 343.287 575.363 343.679C576.203 344.071 577.155 344.267 578.219 344.267C579.301 344.267 580.263 344.09 581.103 343.735C581.943 343.381 582.596 342.895 583.063 342.279C583.529 341.645 583.763 340.917 583.763 340.095C583.763 339.797 583.744 339.442 583.707 339.031C583.968 338.994 584.155 338.975 584.267 338.975C584.883 338.975 585.377 339.153 585.751 339.507C586.143 339.862 586.339 340.338 586.339 340.935C586.339 342.037 585.993 343.017 585.303 343.875C584.612 344.734 583.651 345.406 582.419 345.891C581.205 346.358 579.805 346.591 578.219 346.591ZM594.156 346.591C593.018 346.591 591.982 346.377 591.048 345.947C590.134 345.518 589.415 344.939 588.892 344.211C588.388 343.465 588.136 342.634 588.136 341.719V337.127C588.136 336.194 588.388 335.345 588.892 334.579C589.415 333.814 590.134 333.207 591.048 332.759C591.963 332.311 592.999 332.087 594.156 332.087C595.314 332.087 596.35 332.311 597.264 332.759C598.198 333.207 598.916 333.814 599.42 334.579C599.943 335.345 600.204 336.194 600.204 337.127V341.719C600.204 342.634 599.943 343.465 599.42 344.211C598.898 344.939 598.179 345.518 597.264 345.947C596.35 346.377 595.314 346.591 594.156 346.591ZM594.156 344.491C595.276 344.491 596.163 344.23 596.816 343.707C597.488 343.166 597.824 342.466 597.824 341.607V337.211C597.824 336.315 597.488 335.587 596.816 335.027C596.163 334.467 595.276 334.187 594.156 334.187C593.055 334.187 592.168 334.467 591.496 335.027C590.824 335.587 590.488 336.315 590.488 337.211V341.607C590.488 342.466 590.815 343.166 591.468 343.707C592.14 344.23 593.036 344.491 594.156 344.491ZM603.438 334.159C603.438 332.778 604.222 332.087 605.79 332.087V333.879C605.622 334.047 605.426 334.299 605.202 334.635L605.314 334.747C605.874 333.963 606.602 333.329 607.498 332.843C608.394 332.339 609.365 332.087 610.41 332.087C611.922 332.087 613.117 332.535 613.994 333.431C614.871 334.327 615.31 335.485 615.31 336.903V344.799C615.31 345.415 615.105 345.873 614.694 346.171C614.302 346.451 613.695 346.591 612.874 346.591V337.155C612.874 336.259 612.622 335.55 612.118 335.027C611.614 334.505 610.849 334.243 609.822 334.243C609.131 334.243 608.478 334.393 607.862 334.691C607.265 334.971 606.779 335.363 606.406 335.867C606.051 336.353 605.874 336.885 605.874 337.463V344.799C605.874 345.415 605.669 345.873 605.258 346.171C604.866 346.451 604.259 346.591 603.438 346.591V334.159ZM624.514 352.191C623.543 352.191 622.638 352.033 621.798 351.715C620.958 351.398 620.295 350.969 619.81 350.427C619.325 349.905 619.082 349.335 619.082 348.719C619.082 348.234 619.241 347.879 619.558 347.655C619.894 347.431 620.342 347.319 620.902 347.319C620.939 348.197 621.275 348.887 621.91 349.391C622.563 349.914 623.431 350.175 624.514 350.175C626.903 350.175 628.098 349.018 628.098 346.703V345.079C628.359 344.855 628.555 344.65 628.686 344.463L628.602 344.323C628.061 344.902 627.379 345.378 626.558 345.751C625.755 346.125 624.943 346.311 624.122 346.311C622.517 346.311 621.201 345.873 620.174 344.995C619.166 344.099 618.662 342.923 618.662 341.467V336.959C618.662 336.007 618.895 335.167 619.362 334.439C619.847 333.693 620.501 333.114 621.322 332.703C622.162 332.293 623.086 332.087 624.094 332.087C625.923 332.087 627.454 332.89 628.686 334.495L628.798 334.383L628.238 333.683C628.238 333.161 628.415 332.769 628.77 332.507C629.143 332.227 629.741 332.087 630.562 332.087V346.451C630.562 347.571 630.301 348.561 629.778 349.419C629.274 350.297 628.565 350.978 627.65 351.463C626.735 351.949 625.69 352.191 624.514 352.191ZM624.57 344.183C625.559 344.183 626.399 343.922 627.09 343.399C627.781 342.858 628.126 342.223 628.126 341.495V336.931C628.126 336.166 627.781 335.522 627.09 334.999C626.418 334.477 625.597 334.215 624.626 334.215C623.506 334.215 622.638 334.467 622.022 334.971C621.406 335.457 621.098 336.157 621.098 337.071V341.355C621.098 342.233 621.397 342.923 621.994 343.427C622.61 343.931 623.469 344.183 624.57 344.183ZM640.549 334.243C639.504 334.243 638.636 334.561 637.945 335.195C637.254 335.811 636.909 336.567 636.909 337.463V344.799C636.909 345.415 636.704 345.873 636.293 346.171C635.901 346.451 635.294 346.591 634.473 346.591V334.159C634.473 332.778 635.257 332.087 636.825 332.087V333.795C636.526 334.113 636.321 334.393 636.209 334.635L636.321 334.747C637.516 332.974 639.009 332.087 640.801 332.087C641.473 332.087 641.986 332.255 642.341 332.591C642.696 332.909 642.873 333.301 642.873 333.767C642.873 334.103 642.789 334.402 642.621 334.663C642.098 334.383 641.408 334.243 640.549 334.243ZM650.191 346.591C649.052 346.591 648.035 346.377 647.139 345.947C646.243 345.499 645.543 344.893 645.039 344.127C644.535 343.343 644.283 342.466 644.283 341.495V337.351C644.283 336.362 644.544 335.466 645.067 334.663C645.608 333.861 646.327 333.235 647.223 332.787C648.138 332.321 649.127 332.087 650.191 332.087C651.255 332.087 652.226 332.311 653.103 332.759C653.999 333.207 654.699 333.823 655.203 334.607C655.726 335.391 655.987 336.278 655.987 337.267V339.059C655.987 339.358 655.875 339.61 655.651 339.815C655.427 340.021 655.156 340.123 654.839 340.123H646.663V341.383C646.663 342.335 646.962 343.101 647.559 343.679C648.175 344.258 649.052 344.547 650.191 344.547C651.33 344.547 652.198 344.295 652.795 343.791C653.392 343.287 653.691 342.606 653.691 341.747C654.251 341.71 654.718 341.822 655.091 342.083C655.483 342.326 655.679 342.69 655.679 343.175C655.679 343.773 655.418 344.333 654.895 344.855C654.391 345.378 653.719 345.798 652.879 346.115C652.039 346.433 651.143 346.591 650.191 346.591ZM653.719 338.219V337.267C653.719 336.334 653.392 335.578 652.739 334.999C652.104 334.402 651.255 334.103 650.191 334.103C649.127 334.103 648.268 334.402 647.615 334.999C646.98 335.578 646.663 336.334 646.663 337.267V338.219H653.719ZM664.287 346.591C663.335 346.591 662.439 346.451 661.599 346.171C660.759 345.873 660.078 345.453 659.555 344.911C659.051 344.37 658.799 343.735 658.799 343.007C658.799 342.111 659.341 341.626 660.423 341.551C660.61 342.597 661.049 343.371 661.739 343.875C662.449 344.361 663.345 344.603 664.427 344.603C665.51 344.603 666.35 344.445 666.947 344.127C667.545 343.81 667.843 343.325 667.843 342.671C667.843 342.205 667.722 341.831 667.479 341.551C667.237 341.253 666.845 341.001 666.303 340.795C665.781 340.571 665.025 340.357 664.035 340.151C662.803 339.871 661.823 339.573 661.095 339.255C660.367 338.938 659.807 338.518 659.415 337.995C659.042 337.473 658.855 336.782 658.855 335.923C658.855 335.195 659.079 334.542 659.527 333.963C659.975 333.366 660.591 332.909 661.375 332.591C662.178 332.255 663.083 332.087 664.091 332.087C665.025 332.087 665.902 332.218 666.723 332.479C667.563 332.741 668.235 333.114 668.739 333.599C669.262 334.085 669.523 334.645 669.523 335.279C669.523 335.709 669.355 336.054 669.019 336.315C668.683 336.558 668.217 336.698 667.619 336.735C667.563 335.914 667.227 335.27 666.611 334.803C666.014 334.318 665.174 334.075 664.091 334.075C663.195 334.075 662.486 334.243 661.963 334.579C661.441 334.915 661.179 335.363 661.179 335.923C661.179 336.521 661.422 336.969 661.907 337.267C662.411 337.547 663.261 337.818 664.455 338.079C666.415 338.471 667.853 339.013 668.767 339.703C669.701 340.375 670.167 341.337 670.167 342.587C670.167 343.857 669.654 344.846 668.627 345.555C667.601 346.246 666.154 346.591 664.287 346.591ZM678.451 346.591C677.499 346.591 676.603 346.451 675.763 346.171C674.923 345.873 674.242 345.453 673.719 344.911C673.215 344.37 672.963 343.735 672.963 343.007C672.963 342.111 673.505 341.626 674.587 341.551C674.774 342.597 675.213 343.371 675.903 343.875C676.613 344.361 677.509 344.603 678.591 344.603C679.674 344.603 680.514 344.445 681.111 344.127C681.709 343.81 682.007 343.325 682.007 342.671C682.007 342.205 681.886 341.831 681.643 341.551C681.401 341.253 681.009 341.001 680.467 340.795C679.945 340.571 679.189 340.357 678.199 340.151C676.967 339.871 675.987 339.573 675.259 339.255C674.531 338.938 673.971 338.518 673.579 337.995C673.206 337.473 673.019 336.782 673.019 335.923C673.019 335.195 673.243 334.542 673.691 333.963C674.139 333.366 674.755 332.909 675.539 332.591C676.342 332.255 677.247 332.087 678.255 332.087C679.189 332.087 680.066 332.218 680.887 332.479C681.727 332.741 682.399 333.114 682.903 333.599C683.426 334.085 683.687 334.645 683.687 335.279C683.687 335.709 683.519 336.054 683.183 336.315C682.847 336.558 682.381 336.698 681.783 336.735C681.727 335.914 681.391 335.27 680.775 334.803C680.178 334.318 679.338 334.075 678.255 334.075C677.359 334.075 676.65 334.243 676.127 334.579C675.605 334.915 675.343 335.363 675.343 335.923C675.343 336.521 675.586 336.969 676.071 337.267C676.575 337.547 677.425 337.818 678.619 338.079C680.579 338.471 682.017 339.013 682.931 339.703C683.865 340.375 684.331 341.337 684.331 342.587C684.331 343.857 683.818 344.846 682.791 345.555C681.765 346.246 680.318 346.591 678.451 346.591ZM692.156 346.591C691.018 346.591 689.982 346.377 689.048 345.947C688.134 345.518 687.415 344.939 686.892 344.211C686.388 343.465 686.136 342.634 686.136 341.719V337.127C686.136 336.194 686.388 335.345 686.892 334.579C687.415 333.814 688.134 333.207 689.048 332.759C689.963 332.311 690.999 332.087 692.156 332.087C693.314 332.087 694.35 332.311 695.264 332.759C696.198 333.207 696.916 333.814 697.42 334.579C697.943 335.345 698.204 336.194 698.204 337.127V341.719C698.204 342.634 697.943 343.465 697.42 344.211C696.898 344.939 696.179 345.518 695.264 345.947C694.35 346.377 693.314 346.591 692.156 346.591ZM692.156 344.491C693.276 344.491 694.163 344.23 694.816 343.707C695.488 343.166 695.824 342.466 695.824 341.607V337.211C695.824 336.315 695.488 335.587 694.816 335.027C694.163 334.467 693.276 334.187 692.156 334.187C691.055 334.187 690.168 334.467 689.496 335.027C688.824 335.587 688.488 336.315 688.488 337.211V341.607C688.488 342.466 688.815 343.166 689.468 343.707C690.14 344.23 691.036 344.491 692.156 344.491ZM705.795 346.591C704.843 346.591 703.947 346.451 703.107 346.171C702.267 345.873 701.586 345.453 701.063 344.911C700.559 344.37 700.307 343.735 700.307 343.007C700.307 342.111 700.848 341.626 701.931 341.551C702.118 342.597 702.556 343.371 703.247 343.875C703.956 344.361 704.852 344.603 705.935 344.603C707.018 344.603 707.858 344.445 708.455 344.127C709.052 343.81 709.351 343.325 709.351 342.671C709.351 342.205 709.23 341.831 708.987 341.551C708.744 341.253 708.352 341.001 707.811 340.795C707.288 340.571 706.532 340.357 705.543 340.151C704.311 339.871 703.331 339.573 702.603 339.255C701.875 338.938 701.315 338.518 700.923 337.995C700.55 337.473 700.363 336.782 700.363 335.923C700.363 335.195 700.587 334.542 701.035 333.963C701.483 333.366 702.099 332.909 702.883 332.591C703.686 332.255 704.591 332.087 705.599 332.087C706.532 332.087 707.41 332.218 708.231 332.479C709.071 332.741 709.743 333.114 710.247 333.599C710.77 334.085 711.031 334.645 711.031 335.279C711.031 335.709 710.863 336.054 710.527 336.315C710.191 336.558 709.724 336.698 709.127 336.735C709.071 335.914 708.735 335.27 708.119 334.803C707.522 334.318 706.682 334.075 705.599 334.075C704.703 334.075 703.994 334.243 703.471 334.579C702.948 334.915 702.687 335.363 702.687 335.923C702.687 336.521 702.93 336.969 703.415 337.267C703.919 337.547 704.768 337.818 705.963 338.079C707.923 338.471 709.36 339.013 710.275 339.703C711.208 340.375 711.675 341.337 711.675 342.587C711.675 343.857 711.162 344.846 710.135 345.555C709.108 346.246 707.662 346.591 705.795 346.591ZM727.234 346.591C725.629 346.591 724.322 346.153 723.314 345.275C722.325 344.379 721.83 343.194 721.83 341.719V336.931C721.83 335.979 722.063 335.139 722.53 334.411C722.997 333.665 723.641 333.095 724.462 332.703C725.302 332.293 726.263 332.087 727.346 332.087C728.223 332.087 729.035 332.274 729.782 332.647C730.529 333.002 731.182 333.478 731.742 334.075L731.826 333.935C731.695 333.749 731.499 333.543 731.238 333.319V328.391C731.238 327.775 731.443 327.309 731.854 326.991C732.265 326.655 732.881 326.487 733.702 326.487V344.603C733.702 345.219 733.515 345.705 733.142 346.059C732.787 346.414 732.209 346.591 731.406 346.591V345.023C731.667 344.687 731.845 344.445 731.938 344.295L731.854 344.183C731.257 344.93 730.594 345.518 729.866 345.947C729.138 346.377 728.261 346.591 727.234 346.591ZM727.766 344.435C728.755 344.435 729.586 344.183 730.258 343.679C730.93 343.157 731.266 342.513 731.266 341.747V336.903C731.266 336.157 730.949 335.531 730.314 335.027C729.679 334.505 728.821 334.243 727.738 334.243C726.637 334.243 725.778 334.495 725.162 334.999C724.565 335.485 724.266 336.166 724.266 337.043V341.607C724.266 342.522 724.565 343.222 725.162 343.707C725.778 344.193 726.646 344.435 727.766 344.435ZM742.262 346.591C740.656 346.591 739.359 346.162 738.37 345.303C737.399 344.445 736.914 343.315 736.914 341.915C736.914 340.497 737.427 339.358 738.454 338.499C739.48 337.622 740.834 337.183 742.514 337.183C744.306 337.183 745.78 337.818 746.938 339.087L747.05 338.975C746.844 338.751 746.611 338.518 746.35 338.275V337.099C746.35 336.147 746.051 335.41 745.454 334.887C744.856 334.365 744.007 334.103 742.906 334.103C740.946 334.103 739.546 334.878 738.706 336.427C738.407 336.278 738.155 336.082 737.95 335.839C737.763 335.578 737.67 335.317 737.67 335.055C737.67 334.551 737.922 334.075 738.426 333.627C738.93 333.161 739.592 332.787 740.414 332.507C741.254 332.227 742.131 332.087 743.046 332.087C744.819 332.087 746.21 332.526 747.218 333.403C748.244 334.281 748.758 335.494 748.758 337.043V344.715C748.758 345.369 748.571 345.845 748.198 346.143C747.824 346.442 747.236 346.591 746.434 346.591V345.275C746.826 344.865 747.04 344.622 747.078 344.547L746.966 344.435C745.752 345.873 744.184 346.591 742.262 346.591ZM742.682 344.659C743.839 344.659 744.744 344.417 745.398 343.931C746.07 343.446 746.406 342.774 746.406 341.915C746.406 341.057 746.079 340.375 745.426 339.871C744.772 339.367 743.876 339.115 742.738 339.115C741.674 339.115 740.834 339.367 740.218 339.871C739.62 340.357 739.322 341.038 739.322 341.915C739.322 342.793 739.611 343.474 740.19 343.959C740.787 344.426 741.618 344.659 742.682 344.659ZM759.762 328.671C759.762 327.981 759.996 327.449 760.462 327.075C760.929 326.683 761.573 326.487 762.394 326.487L769.17 342.755L768.638 344.071L768.834 344.155L776.002 326.487C776.824 326.487 777.468 326.683 777.934 327.075C778.42 327.467 778.662 328.009 778.662 328.699V346.591C776.926 346.591 776.058 345.873 776.058 344.435V332.647L776.786 330.715L776.562 330.659L770.318 345.835C770.225 346.059 770.076 346.237 769.87 346.367C769.665 346.517 769.45 346.591 769.226 346.591C768.984 346.591 768.76 346.526 768.554 346.395C768.349 346.265 768.2 346.078 768.106 345.835L761.862 330.631L761.638 330.715L762.366 332.619V344.435C762.366 345.145 762.142 345.686 761.694 346.059C761.265 346.414 760.621 346.591 759.762 346.591V328.671ZM787.914 346.591C786.776 346.591 785.74 346.377 784.806 345.947C783.892 345.518 783.173 344.939 782.65 344.211C782.146 343.465 781.894 342.634 781.894 341.719V337.127C781.894 336.194 782.146 335.345 782.65 334.579C783.173 333.814 783.892 333.207 784.806 332.759C785.721 332.311 786.757 332.087 787.914 332.087C789.072 332.087 790.108 332.311 791.022 332.759C791.956 333.207 792.674 333.814 793.178 334.579C793.701 335.345 793.962 336.194 793.962 337.127V341.719C793.962 342.634 793.701 343.465 793.178 344.211C792.656 344.939 791.937 345.518 791.022 345.947C790.108 346.377 789.072 346.591 787.914 346.591ZM787.914 344.491C789.034 344.491 789.921 344.23 790.574 343.707C791.246 343.166 791.582 342.466 791.582 341.607V337.211C791.582 336.315 791.246 335.587 790.574 335.027C789.921 334.467 789.034 334.187 787.914 334.187C786.813 334.187 785.926 334.467 785.254 335.027C784.582 335.587 784.246 336.315 784.246 337.211V341.607C784.246 342.466 784.573 343.166 785.226 343.707C785.898 344.23 786.794 344.491 787.914 344.491ZM802.386 346.591C801.247 346.591 800.23 346.386 799.334 345.975C798.438 345.565 797.738 344.986 797.234 344.239C796.748 343.493 796.506 342.643 796.506 341.691V337.155C796.506 336.166 796.748 335.289 797.234 334.523C797.738 333.758 798.428 333.161 799.306 332.731C800.183 332.302 801.191 332.087 802.33 332.087C803.394 332.087 804.336 332.246 805.158 332.563C805.998 332.862 806.651 333.291 807.118 333.851C807.584 334.411 807.818 335.046 807.818 335.755C807.818 336.222 807.631 336.605 807.258 336.903C806.903 337.183 806.436 337.305 805.858 337.267C805.858 336.371 805.531 335.643 804.878 335.083C804.243 334.523 803.412 334.243 802.386 334.243C801.359 334.243 800.528 334.523 799.894 335.083C799.259 335.625 798.942 336.334 798.942 337.211V341.579C798.942 342.419 799.268 343.11 799.922 343.651C800.575 344.174 801.415 344.435 802.442 344.435C803.468 344.435 804.299 344.155 804.934 343.595C805.587 343.035 805.914 342.317 805.914 341.439C806.511 341.402 806.987 341.523 807.342 341.803C807.715 342.065 807.902 342.438 807.902 342.923C807.902 343.633 807.668 344.267 807.202 344.827C806.735 345.387 806.082 345.826 805.242 346.143C804.402 346.442 803.45 346.591 802.386 346.591ZM812.962 329.987C812.439 329.987 812 329.819 811.646 329.483C811.291 329.147 811.114 328.727 811.114 328.223C811.114 327.719 811.291 327.309 811.646 326.991C812 326.655 812.439 326.487 812.962 326.487C813.466 326.487 813.895 326.655 814.25 326.991C814.604 327.309 814.782 327.719 814.782 328.223C814.782 328.727 814.604 329.147 814.25 329.483C813.895 329.819 813.466 329.987 812.962 329.987ZM811.73 333.879C811.73 333.263 811.926 332.815 812.318 332.535C812.728 332.237 813.344 332.087 814.166 332.087V344.799C814.166 345.415 813.96 345.873 813.55 346.171C813.158 346.451 812.551 346.591 811.73 346.591V333.879ZM823.839 346.591C822.234 346.591 820.927 346.153 819.919 345.275C818.93 344.379 818.435 343.194 818.435 341.719V336.931C818.435 335.979 818.669 335.139 819.135 334.411C819.602 333.665 820.246 333.095 821.067 332.703C821.907 332.293 822.869 332.087 823.951 332.087C824.829 332.087 825.641 332.274 826.387 332.647C827.134 333.002 827.787 333.478 828.347 334.075L828.431 333.935C828.301 333.749 828.105 333.543 827.843 333.319V328.391C827.843 327.775 828.049 327.309 828.459 326.991C828.87 326.655 829.486 326.487 830.307 326.487V344.603C830.307 345.219 830.121 345.705 829.747 346.059C829.393 346.414 828.814 346.591 828.011 346.591V345.023C828.273 344.687 828.45 344.445 828.543 344.295L828.459 344.183C827.862 344.93 827.199 345.518 826.471 345.947C825.743 346.377 824.866 346.591 823.839 346.591ZM824.371 344.435C825.361 344.435 826.191 344.183 826.863 343.679C827.535 343.157 827.871 342.513 827.871 341.747V336.903C827.871 336.157 827.554 335.531 826.919 335.027C826.285 334.505 825.426 334.243 824.343 334.243C823.242 334.243 822.383 334.495 821.767 334.999C821.17 335.485 820.871 336.166 820.871 337.043V341.607C820.871 342.522 821.17 343.222 821.767 343.707C822.383 344.193 823.251 344.435 824.371 344.435ZM838.867 346.591C837.262 346.591 835.965 346.162 834.975 345.303C834.005 344.445 833.519 343.315 833.519 341.915C833.519 340.497 834.033 339.358 835.059 338.499C836.086 337.622 837.439 337.183 839.119 337.183C840.911 337.183 842.386 337.818 843.543 339.087L843.655 338.975C843.45 338.751 843.217 338.518 842.955 338.275V337.099C842.955 336.147 842.657 335.41 842.059 334.887C841.462 334.365 840.613 334.103 839.511 334.103C837.551 334.103 836.151 334.878 835.311 336.427C835.013 336.278 834.761 336.082 834.555 335.839C834.369 335.578 834.275 335.317 834.275 335.055C834.275 334.551 834.527 334.075 835.031 333.627C835.535 333.161 836.198 332.787 837.019 332.507C837.859 332.227 838.737 332.087 839.651 332.087C841.425 332.087 842.815 332.526 843.823 333.403C844.85 334.281 845.363 335.494 845.363 337.043V344.715C845.363 345.369 845.177 345.845 844.803 346.143C844.43 346.442 843.842 346.591 843.039 346.591V345.275C843.431 344.865 843.646 344.622 843.683 344.547L843.571 344.435C842.358 345.873 840.79 346.591 838.867 346.591ZM839.287 344.659C840.445 344.659 841.35 344.417 842.003 343.931C842.675 343.446 843.011 342.774 843.011 341.915C843.011 341.057 842.685 340.375 842.031 339.871C841.378 339.367 840.482 339.115 839.343 339.115C838.279 339.115 837.439 339.367 836.823 339.871C836.226 340.357 835.927 341.038 835.927 341.915C835.927 342.793 836.217 343.474 836.795 343.959C837.393 344.426 838.223 344.659 839.287 344.659ZM854.273 346.591C852.668 346.591 851.361 346.153 850.353 345.275C849.364 344.379 848.869 343.194 848.869 341.719V336.931C848.869 335.979 849.102 335.139 849.569 334.411C850.036 333.665 850.68 333.095 851.501 332.703C852.341 332.293 853.302 332.087 854.385 332.087C855.262 332.087 856.074 332.274 856.821 332.647C857.568 333.002 858.221 333.478 858.781 334.075L858.865 333.935C858.734 333.749 858.538 333.543 858.277 333.319V328.391C858.277 327.775 858.482 327.309 858.893 326.991C859.304 326.655 859.92 326.487 860.741 326.487V344.603C860.741 345.219 860.554 345.705 860.181 346.059C859.826 346.414 859.248 346.591 858.445 346.591V345.023C858.706 344.687 858.884 344.445 858.977 344.295L858.893 344.183C858.296 344.93 857.633 345.518 856.905 345.947C856.177 346.377 855.3 346.591 854.273 346.591ZM854.805 344.435C855.794 344.435 856.625 344.183 857.297 343.679C857.969 343.157 858.305 342.513 858.305 341.747V336.903C858.305 336.157 857.988 335.531 857.353 335.027C856.718 334.505 855.86 334.243 854.777 334.243C853.676 334.243 852.817 334.495 852.201 334.999C851.604 335.485 851.305 336.166 851.305 337.043V341.607C851.305 342.522 851.604 343.222 852.201 343.707C852.817 344.193 853.685 344.435 854.805 344.435ZM870.281 346.591C869.142 346.591 868.125 346.377 867.229 345.947C866.333 345.499 865.633 344.893 865.129 344.127C864.625 343.343 864.373 342.466 864.373 341.495V337.351C864.373 336.362 864.634 335.466 865.157 334.663C865.698 333.861 866.417 333.235 867.313 332.787C868.227 332.321 869.217 332.087 870.281 332.087C871.345 332.087 872.315 332.311 873.193 332.759C874.089 333.207 874.789 333.823 875.293 334.607C875.815 335.391 876.077 336.278 876.077 337.267V339.059C876.077 339.358 875.965 339.61 875.741 339.815C875.517 340.021 875.246 340.123 874.929 340.123H866.753V341.383C866.753 342.335 867.051 343.101 867.649 343.679C868.265 344.258 869.142 344.547 870.281 344.547C871.419 344.547 872.287 344.295 872.885 343.791C873.482 343.287 873.781 342.606 873.781 341.747C874.341 341.71 874.807 341.822 875.181 342.083C875.573 342.326 875.769 342.69 875.769 343.175C875.769 343.773 875.507 344.333 874.985 344.855C874.481 345.378 873.809 345.798 872.969 346.115C872.129 346.433 871.233 346.591 870.281 346.591ZM873.809 338.219V337.267C873.809 336.334 873.482 335.578 872.829 334.999C872.194 334.402 871.345 334.103 870.281 334.103C869.217 334.103 868.358 334.402 867.705 334.999C867.07 335.578 866.753 336.334 866.753 337.267V338.219H873.809Z" fill="#252525"/>
</svg>
